<svg width="38" height="7" viewBox="0 0 38 7" fill="none" xmlns="http://www.w3.org/2000/svg">
<path d="M0.945312 6.54662V0.839478H3.83331C4.46798 0.839478 4.95598 0.974398 5.29731 1.24424C5.64398 1.50868 5.81731 1.86487 5.81731 2.31281C5.81731 2.64202 5.72131 2.92535 5.52931 3.16281C5.34265 3.40027 5.08398 3.56218 4.75331 3.64852V3.51091C5.14798 3.59186 5.45198 3.75376 5.66531 3.99662C5.87865 4.23408 5.98531 4.539 5.98531 4.91138C5.98531 5.40789 5.79865 5.80456 5.42531 6.10138C5.05198 6.39821 4.54798 6.54662 3.91331 6.54662H0.945312ZM2.59331 5.28376H3.68132C3.91598 5.28376 4.08665 5.24329 4.19331 5.16234C4.29998 5.07599 4.35331 4.94916 4.35331 4.78186C4.35331 4.60916 4.29998 4.48234 4.19331 4.40138C4.08665 4.32043 3.91598 4.27995 3.68132 4.27995H2.59331V5.28376ZM2.59331 3.0171H3.50532C3.73998 3.0171 3.90798 2.98202 4.00931 2.91186C4.11598 2.8363 4.16931 2.71757 4.16931 2.55567C4.16931 2.39376 4.11598 2.27773 4.00931 2.20757C3.90798 2.13741 3.73998 2.10233 3.50532 2.10233H2.59331V3.0171ZM9.20131 6.64376C8.33198 6.64376 7.67865 6.43059 7.24131 6.00424C6.80398 5.57249 6.58531 4.92488 6.58531 4.06138V0.839478H8.31331V4.08567C8.31331 4.44726 8.38265 4.72249 8.52131 4.91138C8.66531 5.10027 8.89198 5.19472 9.20131 5.19472C9.51065 5.19472 9.73465 5.10027 9.87332 4.91138C10.0173 4.72249 10.0893 4.44726 10.0893 4.08567V0.839478H11.7853V4.06138C11.7853 4.92488 11.572 5.57249 11.1453 6.00424C10.724 6.43059 10.076 6.64376 9.20131 6.64376ZM12.672 6.54662V0.839478H14.4V6.54662H12.672ZM15.328 6.54662V0.839478H17.056V5.10567H19.344V6.54662H15.328ZM20.2167 6.54662V2.24805H18.5847V0.839478H23.5766V2.24805H21.9446V6.54662H20.2167ZM26.5233 6.54662V0.839478H29.4113C30.046 0.839478 30.534 0.974398 30.8753 1.24424C31.222 1.50868 31.3953 1.86487 31.3953 2.31281C31.3953 2.64202 31.2993 2.92535 31.1073 3.16281C30.9206 3.40027 30.662 3.56218 30.3313 3.64852V3.51091C30.726 3.59186 31.03 3.75376 31.2433 3.99662C31.4566 4.23408 31.5633 4.539 31.5633 4.91138C31.5633 5.40789 31.3766 5.80456 31.0033 6.10138C30.63 6.39821 30.126 6.54662 29.4913 6.54662H26.5233ZM28.1713 5.28376H29.2593C29.494 5.28376 29.6646 5.24329 29.7713 5.16234C29.878 5.07599 29.9313 4.94916 29.9313 4.78186C29.9313 4.60916 29.878 4.48234 29.7713 4.40138C29.6646 4.32043 29.494 4.27995 29.2593 4.27995H28.1713V5.28376ZM28.1713 3.0171H29.0833C29.318 3.0171 29.486 2.98202 29.5873 2.91186C29.694 2.8363 29.7473 2.71757 29.7473 2.55567C29.7473 2.39376 29.694 2.27773 29.5873 2.20757C29.486 2.13741 29.318 2.10233 29.0833 2.10233H28.1713V3.0171ZM33.4693 6.54662V3.80233L33.8053 4.74138L31.2293 0.839478H33.2133L34.5173 2.96043H34.1893L35.5013 0.839478H37.4293L34.8533 4.74138L35.1973 3.80233V6.54662H33.4693Z" fill="#3A3A3A"/>
</svg>
