<svg width="33" height="33" viewBox="0 0 33 33" fill="none" xmlns="http://www.w3.org/2000/svg">
<mask id="mask0_1_2500" style="mask-type:luminance" maskUnits="userSpaceOnUse" x="0" y="0" width="33" height="33">
<path d="M16.7113 32.912C25.5479 32.912 32.7113 25.7485 32.7113 16.912C32.7113 8.07543 25.5479 0.911987 16.7113 0.911987C7.87479 0.911987 0.711349 8.07543 0.711349 16.912C0.711349 25.7485 7.87479 32.912 16.7113 32.912Z" fill="white"/>
</mask>
<g mask="url(#mask0_1_2500)">
<path d="M3.25667 0.911987V20.5483H10.4203L16.7112 9.63926H32.7112V0.911987H3.25667Z" fill="#DB4437"/>
<path d="M3.25667 0.911987V20.5483H10.4203L16.7112 9.63926H32.7112V0.911987H3.25667Z" fill="url(#paint0_linear_1_2500)"/>
<path d="M0.711349 32.9121H15.9477L23.0386 25.8212V20.5484H10.3841L0.711349 3.91208V32.9121Z" fill="#0F9D58"/>
<path d="M0.711349 32.9121H15.9477L23.0386 25.8212V20.5484H10.3841L0.711349 3.91208V32.9121Z" fill="url(#paint1_linear_1_2500)"/>
<path d="M16.7114 9.63986L23.0023 20.549L15.9841 32.9126H32.7114V9.63986H16.7114Z" fill="#FFCD40"/>
<path d="M16.7114 9.63986L23.0023 20.549L15.9841 32.9126H32.7114V9.63986H16.7114Z" fill="url(#paint2_linear_1_2500)"/>
<path d="M10.5839 20.4936L3.25667 8.25726L10.3476 20.5845L10.5839 20.4936Z" fill="#3E2723" fill-opacity="0.1"/>
<path d="M22.8567 20.7843L22.7113 20.7116L15.9295 32.8934L22.8931 20.7116L22.8567 20.7843Z" fill="#263238" fill-opacity="0.1"/>
<path d="M16.7112 9.63986V13.458L30.9658 9.63986H16.7112Z" fill="url(#paint3_radial_1_2500)"/>
<path d="M3.25667 8.27518L13.6567 18.6752L10.4203 20.5479L3.25667 8.27518Z" fill="url(#paint4_radial_1_2500)"/>
<path d="M15.9475 32.9115L19.7656 18.6751L23.002 20.5478L15.9475 32.9115Z" fill="url(#paint5_radial_1_2500)"/>
<path d="M16.7111 24.1853C20.7277 24.1853 23.9839 20.9292 23.9839 16.9126C23.9839 12.896 20.7277 9.63986 16.7111 9.63986C12.6945 9.63986 9.4384 12.896 9.4384 16.9126C9.4384 20.9292 12.6945 24.1853 16.7111 24.1853Z" fill="#F1F1F1"/>
<path d="M16.7116 22.7301C19.9249 22.7301 22.5298 20.1252 22.5298 16.9119C22.5298 13.6986 19.9249 11.0937 16.7116 11.0937C13.4984 11.0937 10.8935 13.6986 10.8935 16.9119C10.8935 20.1252 13.4984 22.7301 16.7116 22.7301Z" fill="#4285F4"/>
<path d="M16.7113 32.912C25.5479 32.912 32.7113 25.7485 32.7113 16.912C32.7113 8.07543 25.5479 0.911987 16.7113 0.911987C7.87479 0.911987 0.711349 8.07543 0.711349 16.912C0.711349 25.7485 7.87479 32.912 16.7113 32.912Z" fill="url(#paint6_radial_1_2500)"/>
<path d="M23.0023 20.5482C22.3629 21.6503 21.4453 22.5651 20.3413 23.201C19.2372 23.8369 17.9855 24.1716 16.7113 24.1716C15.4372 24.1716 14.1855 23.8369 13.0814 23.201C11.9774 22.5651 11.0598 21.6503 10.4204 20.5482L0.711349 4.09363L10.4204 20.73C11.0598 21.8321 11.9774 22.7469 13.0814 23.3828C14.1855 24.0187 15.4372 24.3535 16.7113 24.3535C17.9855 24.3535 19.2372 24.0187 20.3413 23.3828C21.4453 22.7469 22.3629 21.8321 23.0023 20.73V20.5482Z" fill="white" fill-opacity="0.1"/>
<path d="M16.8932 9.63986H16.8023C18.7311 9.63986 20.581 10.4061 21.9449 11.77C23.3088 13.1339 24.075 14.9837 24.075 16.9126C24.075 18.8414 23.3088 20.6913 21.9449 22.0552C20.581 23.4191 18.7311 24.1853 16.8023 24.1853H16.8932C20.8932 24.1853 24.1659 20.9126 24.1659 16.9126C24.1659 12.9126 20.8932 9.63986 16.8932 9.63986ZM16.7113 32.7308C20.9391 32.7308 24.9951 31.0576 27.993 28.0767C30.991 25.0957 32.6873 21.0494 32.7113 16.8217V16.9126C32.7113 21.1561 31.0256 25.2257 28.0251 28.2263C25.0245 31.2269 20.9548 32.9126 16.7113 32.9126C12.4679 32.9126 8.39822 31.2269 5.39764 28.2263C2.39706 25.2257 0.711349 21.1561 0.711349 16.9126V16.8217C0.735371 21.0494 2.43168 25.0957 5.42966 28.0767C8.42764 31.0576 12.4836 32.7308 16.7113 32.7308Z" fill="#3E2723" fill-opacity="0.1"/>
<path d="M23.075 20.7847C23.5827 19.9135 23.9003 18.9446 24.0069 17.9418C24.1134 16.939 24.0065 15.925 23.6932 14.9665C23.9759 15.8934 24.0604 16.8693 23.9414 17.8309C23.8224 18.7926 23.5024 19.7184 23.0023 20.5484L16.1659 32.912L23.1113 20.8211L23.075 20.7847ZM16.7113 1.09381C20.9391 1.09374 24.9951 2.76696 27.993 5.74791C30.991 8.72886 32.6873 12.7752 32.7113 17.0029V16.912C32.7113 12.6685 31.0256 8.59886 28.0251 5.59828C25.0245 2.5977 20.9548 0.911987 16.7113 0.911987C12.4679 0.911987 8.39822 2.5977 5.39764 5.59828C2.39706 8.59886 0.711349 12.6685 0.711349 16.912V17.0029C0.735371 12.7752 2.43168 8.72886 5.42966 5.74791C8.42764 2.76696 12.4836 1.09374 16.7113 1.09381Z" fill="white" fill-opacity="0.2"/>
<path d="M16.7111 9.45706C12.7111 9.45706 9.4384 12.7298 9.4384 16.7298V16.9116C9.4384 12.9116 12.7111 9.63888 16.7111 9.63888H32.7111V9.45706H16.7111Z" fill="#3E2723" fill-opacity="0.2"/>
</g>
<defs>
<linearGradient id="paint0_linear_1_2500" x1="4.58394" y1="13.2756" x2="14.1294" y2="7.71199" gradientUnits="userSpaceOnUse">
<stop stop-color="#A52714" stop-opacity="0.6"/>
<stop offset="0.7" stop-color="#A52714" stop-opacity="0"/>
</linearGradient>
<linearGradient id="paint1_linear_1_2500" x1="19.4204" y1="29.5484" x2="8.80226" y2="23.3303" gradientUnits="userSpaceOnUse">
<stop stop-color="#055524" stop-opacity="0.4"/>
<stop offset="0.3" stop-color="#055524" stop-opacity="0"/>
</linearGradient>
<linearGradient id="paint2_linear_1_2500" x1="21.6023" y1="8.69441" x2="24.275" y2="20.3853" gradientUnits="userSpaceOnUse">
<stop stop-color="#EA6100" stop-opacity="0.3"/>
<stop offset="0.7" stop-color="#EA6100" stop-opacity="0"/>
</linearGradient>
<radialGradient id="paint3_radial_1_2500" cx="0" cy="0" r="1" gradientUnits="userSpaceOnUse" gradientTransform="translate(16.0203 9.63986) scale(15.2909)">
<stop stop-color="#3E2723" stop-opacity="0.2"/>
<stop offset="1" stop-color="#3E2723" stop-opacity="0"/>
</radialGradient>
<radialGradient id="paint4_radial_1_2500" cx="0" cy="0" r="1" gradientUnits="userSpaceOnUse" gradientTransform="translate(3.23849 8.27518) scale(14.1818)">
<stop stop-color="#3E2723" stop-opacity="0.2"/>
<stop offset="1" stop-color="#3E2723" stop-opacity="0"/>
</radialGradient>
<radialGradient id="paint5_radial_1_2500" cx="0" cy="0" r="1" gradientUnits="userSpaceOnUse" gradientTransform="translate(16.6747 16.9297) scale(15.9818 15.9818)">
<stop stop-color="#263238" stop-opacity="0.2"/>
<stop offset="1" stop-color="#263238" stop-opacity="0"/>
</radialGradient>
<radialGradient id="paint6_radial_1_2500" cx="0" cy="0" r="1" gradientUnits="userSpaceOnUse" gradientTransform="translate(5.49317 5.27562) scale(32.1455)">
<stop stop-color="white" stop-opacity="0.1"/>
<stop offset="1" stop-color="white" stop-opacity="0"/>
</radialGradient>
</defs>
</svg>
