<svg width="29" height="43" viewBox="0 0 29 43" fill="none" xmlns="http://www.w3.org/2000/svg">
<path d="M9.09802 1.2818C10.0894 1.89549 11.0807 2.50917 12.255 3.2412C11.8124 3.46178 11.5183 3.62561 11.1711 3.74125C4.01816 6.39075 -0.0252115 12.4898 0.254518 20.1708C0.464823 25.1055 2.42956 29.3352 5.31394 33.2987C8.55091 37.7266 12.9617 40.4903 18.0508 42.2415C20.6722 43.1391 23.3464 43.1264 26.0233 42.6848C26.7229 42.5542 27.3961 42.3995 28.1329 42.0151C27.7247 41.9315 27.2873 41.7735 26.9136 41.8651C17.6774 43.7707 6.73246 36.2652 3.07037 26.1803C1.62516 22.2313 1.48925 18.2267 2.819 14.2607C4.38982 9.60346 8.98224 5.77635 13.7953 5.16837C13.1992 6.78272 11.3919 7.91883 11.8852 10.0922C13.3585 8.36498 14.7152 6.81922 16.0216 5.2756C16.4482 4.75303 16.5409 4.11853 15.9445 3.81596C13.9194 2.74173 11.8731 1.74407 9.82944 0.796733C9.69955 0.726582 9.4319 0.914506 9.23313 0.973394C9.15892 1.00177 9.11654 1.1549 9.09802 1.2818Z" fill="#212020"/>
</svg>
