<svg width="184" height="16" viewBox="0 0 184 16" fill="none" xmlns="http://www.w3.org/2000/svg">
<path d="M-0.0078125 14.48H13.9922V0.48H-0.0078125V14.48ZM21.1276 13.626C20.5583 13.626 20.0263 13.5513 19.5316 13.402C19.0463 13.2527 18.6449 13.038 18.3276 12.758L18.7336 11.876C19.0789 12.1373 19.4569 12.338 19.8676 12.478C20.2876 12.6087 20.7169 12.674 21.1556 12.674C21.6876 12.674 22.0889 12.576 22.3596 12.38C22.6396 12.184 22.7796 11.9227 22.7796 11.596C22.7796 11.3347 22.6909 11.1247 22.5136 10.966C22.3363 10.8073 22.0563 10.6907 21.6736 10.616L20.3436 10.35C19.7463 10.21 19.2936 9.986 18.9856 9.678C18.6869 9.36067 18.5376 8.95467 18.5376 8.46C18.5376 8.04933 18.6496 7.68533 18.8736 7.368C19.0976 7.04133 19.4149 6.78933 19.8256 6.612C20.2456 6.42533 20.7356 6.332 21.2956 6.332C21.8089 6.332 22.2849 6.40667 22.7236 6.556C23.1716 6.70533 23.5403 6.92467 23.8296 7.214L23.4096 8.068C23.1203 7.816 22.7936 7.62467 22.4296 7.494C22.0749 7.354 21.7109 7.284 21.3376 7.284C20.7963 7.284 20.3949 7.39133 20.1336 7.606C19.8723 7.81133 19.7416 8.082 19.7416 8.418C19.7416 8.67 19.8209 8.88 19.9796 9.048C20.1383 9.20667 20.3949 9.328 20.7496 9.412L22.0796 9.678C22.7049 9.80867 23.1763 10.0233 23.4936 10.322C23.8109 10.6207 23.9696 11.0173 23.9696 11.512C23.9696 11.9507 23.8483 12.3287 23.6056 12.646C23.3723 12.9633 23.0409 13.206 22.6116 13.374C22.1916 13.542 21.6969 13.626 21.1276 13.626ZM28.2126 13.626C27.3632 13.626 26.7239 13.3973 26.2946 12.94C25.8746 12.4827 25.6646 11.778 25.6646 10.826V6.458H26.9386V10.798C26.9386 11.414 27.0646 11.8667 27.3166 12.156C27.5686 12.4453 27.9606 12.59 28.4926 12.59C29.0712 12.59 29.5379 12.3987 29.8926 12.016C30.2566 11.624 30.4386 11.106 30.4386 10.462V6.458H31.7126V13.5H30.4806V11.946H30.6626C30.4666 12.478 30.1539 12.8933 29.7246 13.192C29.2952 13.4813 28.7912 13.626 28.2126 13.626ZM36.879 13.626C36.179 13.626 35.5723 13.4813 35.059 13.192C34.5457 12.8933 34.1443 12.4687 33.855 11.918C33.575 11.358 33.435 10.6953 33.435 9.93C33.435 9.174 33.5797 8.53 33.869 7.998C34.1583 7.45667 34.5597 7.046 35.073 6.766C35.5863 6.47667 36.1883 6.332 36.879 6.332C37.3363 6.332 37.7797 6.41133 38.209 6.57C38.6383 6.71933 38.9883 6.93867 39.259 7.228L38.825 8.124C38.5543 7.86267 38.2557 7.67133 37.929 7.55C37.6023 7.41933 37.2803 7.354 36.963 7.354C36.2723 7.354 35.731 7.578 35.339 8.026C34.947 8.46467 34.751 9.104 34.751 9.944C34.751 10.7933 34.947 11.4467 35.339 11.904C35.731 12.3613 36.2723 12.59 36.963 12.59C37.271 12.59 37.5883 12.5293 37.915 12.408C38.2417 12.2867 38.545 12.0953 38.825 11.834L39.259 12.716C38.979 13.0147 38.6197 13.2433 38.181 13.402C37.7517 13.5513 37.3177 13.626 36.879 13.626ZM43.7013 13.626C43.0013 13.626 42.3946 13.4813 41.8813 13.192C41.3679 12.8933 40.9666 12.4687 40.6773 11.918C40.3973 11.358 40.2573 10.6953 40.2573 9.93C40.2573 9.174 40.4019 8.53 40.6913 7.998C40.9806 7.45667 41.3819 7.046 41.8953 6.766C42.4086 6.47667 43.0106 6.332 43.7013 6.332C44.1586 6.332 44.6019 6.41133 45.0313 6.57C45.4606 6.71933 45.8106 6.93867 46.0813 7.228L45.6473 8.124C45.3766 7.86267 45.0779 7.67133 44.7513 7.55C44.4246 7.41933 44.1026 7.354 43.7853 7.354C43.0946 7.354 42.5533 7.578 42.1613 8.026C41.7693 8.46467 41.5733 9.104 41.5733 9.944C41.5733 10.7933 41.7693 11.4467 42.1613 11.904C42.5533 12.3613 43.0946 12.59 43.7853 12.59C44.0933 12.59 44.4106 12.5293 44.7373 12.408C45.0639 12.2867 45.3673 12.0953 45.6473 11.834L46.0813 12.716C45.8013 13.0147 45.4419 13.2433 45.0033 13.402C44.5739 13.5513 44.1399 13.626 43.7013 13.626ZM50.7055 13.626C49.5855 13.626 48.6989 13.304 48.0455 12.66C47.4015 12.016 47.0795 11.1293 47.0795 10C47.0795 9.25333 47.2195 8.60933 47.4995 8.068C47.7889 7.51733 48.1855 7.09267 48.6895 6.794C49.1935 6.486 49.7815 6.332 50.4535 6.332C51.0975 6.332 51.6435 6.472 52.0915 6.752C52.5395 7.02267 52.8802 7.41 53.1135 7.914C53.3469 8.418 53.4635 9.01533 53.4635 9.706V10.126H48.0735V9.37H52.5955L52.3575 9.552C52.3575 8.824 52.1942 8.25933 51.8675 7.858C51.5502 7.45667 51.0789 7.256 50.4535 7.256C49.7722 7.256 49.2449 7.494 48.8715 7.97C48.4982 8.43667 48.3115 9.076 48.3115 9.888V10.014C48.3115 10.8727 48.5215 11.5213 48.9415 11.96C49.3709 12.3987 49.9635 12.618 50.7195 12.618C51.1395 12.618 51.5315 12.5573 51.8955 12.436C52.2595 12.3147 52.6095 12.114 52.9455 11.834L53.3655 12.716C53.0482 13.0053 52.6515 13.2293 52.1755 13.388C51.7089 13.5467 51.2189 13.626 50.7055 13.626ZM57.5085 13.626C56.9391 13.626 56.4071 13.5513 55.9125 13.402C55.4271 13.2527 55.0258 13.038 54.7085 12.758L55.1145 11.876C55.4598 12.1373 55.8378 12.338 56.2485 12.478C56.6685 12.6087 57.0978 12.674 57.5365 12.674C58.0685 12.674 58.4698 12.576 58.7405 12.38C59.0205 12.184 59.1605 11.9227 59.1605 11.596C59.1605 11.3347 59.0718 11.1247 58.8945 10.966C58.7171 10.8073 58.4371 10.6907 58.0545 10.616L56.7245 10.35C56.1271 10.21 55.6745 9.986 55.3665 9.678C55.0678 9.36067 54.9185 8.95467 54.9185 8.46C54.9185 8.04933 55.0305 7.68533 55.2545 7.368C55.4785 7.04133 55.7958 6.78933 56.2065 6.612C56.6265 6.42533 57.1165 6.332 57.6765 6.332C58.1898 6.332 58.6658 6.40667 59.1045 6.556C59.5525 6.70533 59.9211 6.92467 60.2105 7.214L59.7905 8.068C59.5011 7.816 59.1745 7.62467 58.8105 7.494C58.4558 7.354 58.0918 7.284 57.7185 7.284C57.1771 7.284 56.7758 7.39133 56.5145 7.606C56.2531 7.81133 56.1225 8.082 56.1225 8.418C56.1225 8.67 56.2018 8.88 56.3605 9.048C56.5191 9.20667 56.7758 9.328 57.1305 9.412L58.4605 9.678C59.0858 9.80867 59.5571 10.0233 59.8745 10.322C60.1918 10.6207 60.3505 11.0173 60.3505 11.512C60.3505 11.9507 60.2291 12.3287 59.9865 12.646C59.7531 12.9633 59.4218 13.206 58.9925 13.374C58.5725 13.542 58.0778 13.626 57.5085 13.626ZM64.4674 13.626C63.8981 13.626 63.3661 13.5513 62.8714 13.402C62.3861 13.2527 61.9848 13.038 61.6674 12.758L62.0734 11.876C62.4188 12.1373 62.7968 12.338 63.2074 12.478C63.6274 12.6087 64.0568 12.674 64.4954 12.674C65.0274 12.674 65.4288 12.576 65.6994 12.38C65.9794 12.184 66.1194 11.9227 66.1194 11.596C66.1194 11.3347 66.0308 11.1247 65.8534 10.966C65.6761 10.8073 65.3961 10.6907 65.0134 10.616L63.6834 10.35C63.0861 10.21 62.6334 9.986 62.3254 9.678C62.0268 9.36067 61.8774 8.95467 61.8774 8.46C61.8774 8.04933 61.9894 7.68533 62.2134 7.368C62.4374 7.04133 62.7548 6.78933 63.1654 6.612C63.5854 6.42533 64.0754 6.332 64.6354 6.332C65.1488 6.332 65.6248 6.40667 66.0634 6.556C66.5114 6.70533 66.8801 6.92467 67.1694 7.214L66.7494 8.068C66.4601 7.816 66.1334 7.62467 65.7694 7.494C65.4148 7.354 65.0508 7.284 64.6774 7.284C64.1361 7.284 63.7348 7.39133 63.4734 7.606C63.2121 7.81133 63.0814 8.082 63.0814 8.418C63.0814 8.67 63.1608 8.88 63.3194 9.048C63.4781 9.20667 63.7348 9.328 64.0894 9.412L65.4194 9.678C66.0448 9.80867 66.5161 10.0233 66.8334 10.322C67.1508 10.6207 67.3094 11.0173 67.3094 11.512C67.3094 11.9507 67.1881 12.3287 66.9454 12.646C66.7121 12.9633 66.3808 13.206 65.9514 13.374C65.5314 13.542 65.0368 13.626 64.4674 13.626ZM74.9124 15.796C73.9978 15.796 73.1671 15.6513 72.4204 15.362C71.6738 15.082 71.0344 14.6713 70.5024 14.13C69.9704 13.598 69.5551 12.9587 69.2564 12.212C68.9671 11.4653 68.8224 10.63 68.8224 9.706C68.8224 8.782 68.9718 7.942 69.2704 7.186C69.5784 6.42067 70.0124 5.76267 70.5724 5.212C71.1324 4.66133 71.7951 4.24133 72.5604 3.952C73.3351 3.65333 74.1891 3.504 75.1224 3.504C76.2331 3.504 77.2084 3.71867 78.0484 4.148C78.8884 4.57733 79.5418 5.184 80.0084 5.968C80.4751 6.74267 80.7084 7.65267 80.7084 8.698C80.7084 9.50067 80.5918 10.2007 80.3584 10.798C80.1251 11.3953 79.7984 11.8573 79.3784 12.184C78.9678 12.5107 78.4871 12.674 77.9364 12.674C77.3764 12.674 76.9471 12.5153 76.6484 12.198C76.3498 11.8713 76.2191 11.4327 76.2564 10.882L76.5504 10.91C76.3078 11.4887 75.9671 11.9273 75.5284 12.226C75.0898 12.5247 74.6184 12.674 74.1144 12.674C73.3771 12.674 72.8031 12.4453 72.3924 11.988C71.9911 11.5307 71.7904 10.9053 71.7904 10.112C71.7904 9.42133 71.9211 8.81 72.1824 8.278C72.4531 7.73667 72.8218 7.31667 73.2884 7.018C73.7551 6.71 74.2824 6.556 74.8704 6.556C75.3931 6.556 75.8178 6.682 76.1444 6.934C76.4804 7.186 76.6998 7.54067 76.8024 7.998H76.6204L76.8724 6.682H77.8804L77.2364 10.252C77.2178 10.3827 77.1991 10.504 77.1804 10.616C77.1711 10.728 77.1664 10.8353 77.1664 10.938C77.1664 11.246 77.2364 11.4747 77.3764 11.624C77.5164 11.7733 77.7264 11.848 78.0064 11.848C78.3611 11.848 78.6738 11.7173 78.9444 11.456C79.2151 11.1947 79.4298 10.8307 79.5884 10.364C79.7471 9.888 79.8264 9.33267 79.8264 8.698C79.8264 7.81133 79.6304 7.046 79.2384 6.402C78.8464 5.74867 78.3004 5.24467 77.6004 4.89C76.9004 4.53533 76.0698 4.358 75.1084 4.358C74.0444 4.358 73.1111 4.582 72.3084 5.03C71.5151 5.46867 70.8944 6.08933 70.4464 6.892C70.0078 7.69467 69.7884 8.63267 69.7884 9.706C69.7884 10.7887 69.9984 11.722 70.4184 12.506C70.8384 13.29 71.4311 13.8873 72.1964 14.298C72.9711 14.718 73.8764 14.928 74.9124 14.928C75.6778 14.928 76.3684 14.816 76.9844 14.592C77.6098 14.368 78.1324 14.0413 78.5524 13.612L79.0284 14.354C78.5711 14.8113 77.9831 15.166 77.2644 15.418C76.5551 15.67 75.7711 15.796 74.9124 15.796ZM74.2684 11.792C74.6884 11.792 75.0618 11.6753 75.3884 11.442C75.7151 11.1993 75.9718 10.8633 76.1584 10.434C76.3451 10.0047 76.4384 9.51933 76.4384 8.978C76.4384 8.45533 76.3218 8.068 76.0884 7.816C75.8551 7.564 75.4958 7.438 75.0104 7.438C74.5998 7.438 74.2264 7.55 73.8904 7.774C73.5638 7.998 73.3071 8.31533 73.1204 8.726C72.9338 9.12733 72.8404 9.58933 72.8404 10.112C72.8404 10.6533 72.9664 11.0687 73.2184 11.358C73.4704 11.6473 73.8204 11.792 74.2684 11.792ZM84.4993 13.5L81.8673 6.458H83.1973L85.3253 12.492H84.9613L87.1453 6.458H88.1813L90.3513 12.492H90.0013L92.1433 6.458H93.4173L90.7713 13.5H89.5673L87.3273 7.368H87.9433L85.7173 13.5H84.4993ZM94.8042 13.5V6.458H96.0782V13.5H94.8042ZM94.6922 4.918V3.546H96.2042V4.918H94.6922ZM97.8305 13.5V12.646L102.507 7.116V7.438H97.8305V6.458H103.683V7.312L98.9785 12.87L98.9645 12.52H103.837V13.5H97.8305ZM108.102 13.626C107.486 13.626 106.944 13.4813 106.478 13.192C106.011 12.9027 105.647 12.4827 105.386 11.932C105.124 11.3813 104.994 10.728 104.994 9.972C104.994 9.216 105.124 8.56733 105.386 8.026C105.647 7.47533 106.011 7.05533 106.478 6.766C106.944 6.47667 107.486 6.332 108.102 6.332C108.727 6.332 109.268 6.49067 109.726 6.808C110.192 7.116 110.5 7.54067 110.65 8.082H110.482L110.636 6.458H111.868C111.84 6.738 111.812 7.018 111.784 7.298C111.765 7.578 111.756 7.85333 111.756 8.124V13.5H110.482V11.89H110.636C110.486 12.422 110.178 12.8467 109.712 13.164C109.254 13.472 108.718 13.626 108.102 13.626ZM108.396 12.618C109.03 12.618 109.539 12.394 109.922 11.946C110.304 11.498 110.496 10.84 110.496 9.972C110.496 9.104 110.304 8.45067 109.922 8.012C109.539 7.57333 109.03 7.354 108.396 7.354C107.761 7.354 107.248 7.57333 106.856 8.012C106.473 8.45067 106.282 9.104 106.282 9.972C106.282 10.84 106.473 11.498 106.856 11.946C107.238 12.394 107.752 12.618 108.396 12.618ZM113.876 13.5V8.18C113.876 7.9 113.867 7.61533 113.848 7.326C113.839 7.02733 113.816 6.738 113.778 6.458H115.01L115.164 8.222L114.954 8.236C115.048 7.80667 115.206 7.452 115.43 7.172C115.664 6.88267 115.939 6.67267 116.256 6.542C116.583 6.402 116.919 6.332 117.264 6.332C117.414 6.332 117.54 6.33667 117.642 6.346C117.745 6.35533 117.848 6.37867 117.95 6.416L117.922 7.55C117.782 7.494 117.652 7.46133 117.53 7.452C117.418 7.43333 117.278 7.424 117.11 7.424C116.7 7.424 116.345 7.51733 116.046 7.704C115.757 7.89067 115.533 8.138 115.374 8.446C115.225 8.754 115.15 9.08533 115.15 9.44V13.5H113.876ZM121.664 13.626C121.048 13.626 120.507 13.4813 120.04 13.192C119.573 12.9027 119.209 12.4827 118.948 11.932C118.687 11.3813 118.556 10.728 118.556 9.972C118.556 9.216 118.687 8.56733 118.948 8.026C119.209 7.47533 119.573 7.05533 120.04 6.766C120.507 6.47667 121.048 6.332 121.664 6.332C122.28 6.332 122.817 6.486 123.274 6.794C123.741 7.102 124.053 7.52667 124.212 8.068H124.044V3.196H125.318V13.5H124.058V11.862H124.212C124.063 12.4127 123.755 12.8467 123.288 13.164C122.831 13.472 122.289 13.626 121.664 13.626ZM121.958 12.618C122.593 12.618 123.101 12.394 123.484 11.946C123.876 11.498 124.072 10.84 124.072 9.972C124.072 9.104 123.876 8.45067 123.484 8.012C123.101 7.57333 122.593 7.354 121.958 7.354C121.323 7.354 120.81 7.57333 120.418 8.012C120.035 8.45067 119.844 9.104 119.844 9.972C119.844 10.84 120.035 11.498 120.418 11.946C120.81 12.394 121.323 12.618 121.958 12.618ZM129.833 13.626C129.263 13.626 128.731 13.5513 128.237 13.402C127.751 13.2527 127.35 13.038 127.033 12.758L127.439 11.876C127.784 12.1373 128.162 12.338 128.573 12.478C128.993 12.6087 129.422 12.674 129.861 12.674C130.393 12.674 130.794 12.576 131.065 12.38C131.345 12.184 131.485 11.9227 131.485 11.596C131.485 11.3347 131.396 11.1247 131.219 10.966C131.041 10.8073 130.761 10.6907 130.379 10.616L129.049 10.35C128.451 10.21 127.999 9.986 127.691 9.678C127.392 9.36067 127.243 8.95467 127.243 8.46C127.243 8.04933 127.355 7.68533 127.579 7.368C127.803 7.04133 128.12 6.78933 128.531 6.612C128.951 6.42533 129.441 6.332 130.001 6.332C130.514 6.332 130.99 6.40667 131.429 6.556C131.877 6.70533 132.245 6.92467 132.535 7.214L132.115 8.068C131.825 7.816 131.499 7.62467 131.135 7.494C130.78 7.354 130.416 7.284 130.043 7.284C129.501 7.284 129.1 7.39133 128.839 7.606C128.577 7.81133 128.447 8.082 128.447 8.418C128.447 8.67 128.526 8.88 128.685 9.048C128.843 9.20667 129.1 9.328 129.455 9.412L130.785 9.678C131.41 9.80867 131.881 10.0233 132.199 10.322C132.516 10.6207 132.675 11.0173 132.675 11.512C132.675 11.9507 132.553 12.3287 132.311 12.646C132.077 12.9633 131.746 13.206 131.317 13.374C130.897 13.542 130.402 13.626 129.833 13.626ZM134.412 13.5V3.196H135.686V7.984H135.504C135.709 7.44267 136.04 7.032 136.498 6.752C136.955 6.472 137.482 6.332 138.08 6.332C138.929 6.332 139.554 6.56067 139.956 7.018C140.366 7.47533 140.572 8.166 140.572 9.09V13.5H139.298V9.16C139.298 8.53467 139.176 8.082 138.934 7.802C138.691 7.51267 138.294 7.368 137.744 7.368C137.128 7.368 136.628 7.55933 136.246 7.942C135.872 8.32467 135.686 8.83333 135.686 9.468V13.5H134.412ZM145.624 13.626C144.933 13.626 144.336 13.4813 143.832 13.192C143.328 12.8933 142.936 12.4733 142.656 11.932C142.376 11.3813 142.236 10.728 142.236 9.972C142.236 9.22533 142.376 8.58133 142.656 8.04C142.936 7.48933 143.328 7.06933 143.832 6.78C144.336 6.48133 144.933 6.332 145.624 6.332C146.314 6.332 146.912 6.48133 147.416 6.78C147.929 7.06933 148.321 7.48933 148.592 8.04C148.872 8.58133 149.012 9.22533 149.012 9.972C149.012 10.728 148.872 11.3813 148.592 11.932C148.321 12.4733 147.929 12.8933 147.416 13.192C146.912 13.4813 146.314 13.626 145.624 13.626ZM145.624 12.618C146.258 12.618 146.767 12.394 147.15 11.946C147.532 11.498 147.724 10.84 147.724 9.972C147.724 9.104 147.532 8.45067 147.15 8.012C146.767 7.57333 146.258 7.354 145.624 7.354C144.98 7.354 144.466 7.57333 144.084 8.012C143.71 8.45067 143.524 9.104 143.524 9.972C143.524 10.84 143.71 11.498 144.084 11.946C144.466 12.394 144.98 12.618 145.624 12.618ZM153.286 13.626C152.549 13.626 151.989 13.4253 151.606 13.024C151.233 12.6133 151.046 11.9973 151.046 11.176V7.438H149.674V6.458H151.046V4.568L152.32 4.218V6.458H154.308V7.438H152.32V11.064C152.32 11.6053 152.413 11.9927 152.6 12.226C152.796 12.45 153.076 12.562 153.44 12.562C153.627 12.562 153.785 12.548 153.916 12.52C154.056 12.4827 154.182 12.4407 154.294 12.394V13.444C154.154 13.5 153.991 13.542 153.804 13.57C153.627 13.6073 153.454 13.626 153.286 13.626ZM155.639 13.5V11.946H157.193V13.5H155.639ZM161.84 13.626C161.14 13.626 160.533 13.4813 160.02 13.192C159.507 12.8933 159.105 12.4687 158.816 11.918C158.536 11.358 158.396 10.6953 158.396 9.93C158.396 9.174 158.541 8.53 158.83 7.998C159.119 7.45667 159.521 7.046 160.034 6.766C160.547 6.47667 161.149 6.332 161.84 6.332C162.297 6.332 162.741 6.41133 163.17 6.57C163.599 6.71933 163.949 6.93867 164.22 7.228L163.786 8.124C163.515 7.86267 163.217 7.67133 162.89 7.55C162.563 7.41933 162.241 7.354 161.924 7.354C161.233 7.354 160.692 7.578 160.3 8.026C159.908 8.46467 159.712 9.104 159.712 9.944C159.712 10.7933 159.908 11.4467 160.3 11.904C160.692 12.3613 161.233 12.59 161.924 12.59C162.232 12.59 162.549 12.5293 162.876 12.408C163.203 12.2867 163.506 12.0953 163.786 11.834L164.22 12.716C163.94 13.0147 163.581 13.2433 163.142 13.402C162.713 13.5513 162.279 13.626 161.84 13.626ZM168.606 13.626C167.916 13.626 167.318 13.4813 166.814 13.192C166.31 12.8933 165.918 12.4733 165.638 11.932C165.358 11.3813 165.218 10.728 165.218 9.972C165.218 9.22533 165.358 8.58133 165.638 8.04C165.918 7.48933 166.31 7.06933 166.814 6.78C167.318 6.48133 167.916 6.332 168.606 6.332C169.297 6.332 169.894 6.48133 170.398 6.78C170.912 7.06933 171.304 7.48933 171.574 8.04C171.854 8.58133 171.994 9.22533 171.994 9.972C171.994 10.728 171.854 11.3813 171.574 11.932C171.304 12.4733 170.912 12.8933 170.398 13.192C169.894 13.4813 169.297 13.626 168.606 13.626ZM168.606 12.618C169.241 12.618 169.75 12.394 170.132 11.946C170.515 11.498 170.706 10.84 170.706 9.972C170.706 9.104 170.515 8.45067 170.132 8.012C169.75 7.57333 169.241 7.354 168.606 7.354C167.962 7.354 167.449 7.57333 167.066 8.012C166.693 8.45067 166.506 9.104 166.506 9.972C166.506 10.84 166.693 11.498 167.066 11.946C167.449 12.394 167.962 12.618 168.606 12.618ZM173.705 13.5V8.124C173.705 7.85333 173.695 7.578 173.677 7.298C173.658 7.018 173.63 6.738 173.593 6.458H174.825L174.965 7.97H174.797C174.983 7.44733 175.282 7.046 175.693 6.766C176.103 6.47667 176.593 6.332 177.163 6.332C177.741 6.332 178.217 6.472 178.591 6.752C178.964 7.02267 179.216 7.452 179.347 8.04H179.137C179.314 7.51733 179.627 7.102 180.075 6.794C180.523 6.486 181.045 6.332 181.643 6.332C182.417 6.332 183.001 6.56067 183.393 7.018C183.785 7.466 183.981 8.166 183.981 9.118V13.5H182.707V9.188C182.707 8.544 182.595 8.082 182.371 7.802C182.147 7.51267 181.792 7.368 181.307 7.368C180.737 7.368 180.289 7.564 179.963 7.956C179.636 8.33867 179.473 8.86133 179.473 9.524V13.5H178.199V9.188C178.199 8.544 178.087 8.082 177.863 7.802C177.648 7.51267 177.293 7.368 176.799 7.368C176.229 7.368 175.781 7.564 175.455 7.956C175.137 8.33867 174.979 8.86133 174.979 9.524V13.5H173.705Z" fill="#0D0D0D"/>
</svg>
