<svg width="89" height="14" viewBox="0 0 89 14" fill="none" xmlns="http://www.w3.org/2000/svg">
<path d="M3.86027 13.3351L0.0817871 0.66502H2.38701L4.39758 7.35537C4.50157 7.70202 4.59979 8.07178 4.69223 8.46465C4.78467 8.84596 4.87711 9.31394 4.96955 9.86858C5.07355 9.30238 5.17177 8.83441 5.2642 8.46465C5.3682 8.08333 5.47219 7.71357 5.57619 7.35537L7.58676 0.66502H10.0306L11.9892 7.35537C12.0932 7.71357 12.1914 8.08911 12.2839 8.48198C12.3879 8.87485 12.4919 9.33705 12.5959 9.86858C12.7114 9.27927 12.8154 8.79974 12.9078 8.42998C13.0118 8.04867 13.1101 7.70202 13.2025 7.39003L15.2477 0.66502H17.501L13.6531 13.3351H11.5039L8.80003 4.11419L6.02683 13.3351H3.86027Z" fill="#1E293B"/>
<path d="M18.6823 13.3351V4.77282H20.7968V13.3351H18.6823ZM19.7222 3.0569C19.364 3.0569 19.0578 2.93558 18.8036 2.69292C18.5609 2.43871 18.4396 2.1325 18.4396 1.7743C18.4396 1.41609 18.5609 1.11566 18.8036 0.873009C19.0578 0.630355 19.364 0.509027 19.7222 0.509027C20.0804 0.509027 20.3809 0.630355 20.6235 0.873009C20.8777 1.11566 21.0048 1.41609 21.0048 1.7743C21.0048 2.1325 20.8777 2.43871 20.6235 2.69292C20.3809 2.93558 20.0804 3.0569 19.7222 3.0569Z" fill="#1E293B"/>
<path d="M29.2559 13.3351H22.3576V11.6018L26.6214 6.54074H22.3576V4.77282H29.2559V6.52341L24.9401 11.5672H29.2559V13.3351Z" fill="#1E293B"/>
<path d="M33.3751 13.5604C32.4738 13.5604 31.7574 13.3177 31.2259 12.8324C30.7059 12.3356 30.4459 11.6885 30.4459 10.8912C30.4459 10.1055 30.7174 9.48149 31.2605 9.01929C31.8152 8.54553 32.6009 8.26821 33.6177 8.18733L36.1829 7.97934V7.78868C36.1829 7.39581 36.1078 7.08382 35.9576 6.85272C35.819 6.61007 35.6168 6.43674 35.351 6.33275C35.0852 6.2172 34.7732 6.15942 34.415 6.15942C33.7911 6.15942 33.3115 6.28653 32.9764 6.54074C32.6413 6.78339 32.4738 7.13004 32.4738 7.58069H30.6712C30.6712 6.95672 30.8272 6.41941 31.1392 5.96877C31.4627 5.50657 31.9134 5.14836 32.4911 4.89415C33.0804 4.63994 33.7564 4.51284 34.519 4.51284C35.2932 4.51284 35.9576 4.6515 36.5123 4.92882C37.0669 5.19458 37.4944 5.59901 37.7949 6.14209C38.0953 6.67362 38.2455 7.33803 38.2455 8.13533V13.3351H36.3909L36.2349 12.0698C36.0501 12.5089 35.6919 12.8671 35.1603 13.1444C34.6404 13.4217 34.0453 13.5604 33.3751 13.5604ZM34.051 11.9658C34.7097 11.9658 35.2297 11.7809 35.611 11.4112C36.0038 11.0414 36.2003 10.5272 36.2003 9.86858V9.41793L34.415 9.55659C33.7564 9.61437 33.2884 9.75303 33.0111 9.97257C32.7338 10.1806 32.5951 10.4579 32.5951 10.8045C32.5951 11.1858 32.7222 11.4747 32.9764 11.6712C33.2306 11.8676 33.5888 11.9658 34.051 11.9658Z" fill="#1E293B"/>
<path d="M45.5226 4.73816V6.69673H44.7426C43.9684 6.69673 43.3618 6.90472 42.9227 7.3207C42.4836 7.72513 42.2641 8.34332 42.2641 9.17528V13.3351H40.1495V4.79015H42.1428L42.3161 6.55807H42.1081C42.2236 5.99188 42.4952 5.52968 42.9227 5.17147C43.3503 4.81327 43.9049 4.63416 44.5866 4.63416C44.7369 4.63416 44.8871 4.63994 45.0373 4.65149C45.1875 4.66305 45.3493 4.69194 45.5226 4.73816Z" fill="#1E293B"/>
<path d="M50.0113 13.5604C49.1793 13.5604 48.4629 13.3755 47.8621 13.0058C47.2728 12.6244 46.8106 12.0987 46.4755 11.4285C46.1519 10.7583 45.9902 9.97835 45.9902 9.08862C45.9902 8.19888 46.1519 7.41314 46.4755 6.7314C46.8106 6.0381 47.2901 5.49501 47.9141 5.10214C48.538 4.70927 49.2776 4.51284 50.1326 4.51284C50.7335 4.51284 51.2824 4.63416 51.7792 4.87682C52.2761 5.10792 52.6574 5.43724 52.9232 5.86477V0.439697H55.0204V13.3351H53.0792L52.9405 12.0005C52.6863 12.4858 52.2934 12.8671 51.7619 13.1444C51.2419 13.4217 50.6584 13.5604 50.0113 13.5604ZM50.4793 11.6192C50.9762 11.6192 51.4037 11.5152 51.7619 11.3072C52.1201 11.0876 52.3974 10.7814 52.5938 10.3886C52.8018 9.98413 52.9058 9.52771 52.9058 9.01929C52.9058 8.49931 52.8018 8.04867 52.5938 7.66735C52.3974 7.27448 52.1201 6.96827 51.7619 6.74873C51.4037 6.51763 50.9762 6.40208 50.4793 6.40208C49.994 6.40208 49.5722 6.51763 49.214 6.74873C48.8558 6.96827 48.5785 7.27448 48.382 7.66735C48.1972 8.06022 48.1047 8.51087 48.1047 9.01929C48.1047 9.52771 48.1972 9.97835 48.382 10.3712C48.5785 10.7641 48.8558 11.0703 49.214 11.2898C49.5722 11.5094 49.994 11.6192 50.4793 11.6192Z" fill="#1E293B"/>
<path d="M57.2587 10.7352H59.2693C59.2808 11.105 59.4195 11.3996 59.6853 11.6192C59.951 11.8387 60.3208 11.9485 60.7946 11.9485C61.303 11.9485 61.6843 11.856 61.9385 11.6712C62.2043 11.4863 62.3371 11.2378 62.3371 10.9259C62.3371 10.7179 62.2678 10.533 62.1292 10.3712C61.9905 10.2095 61.7305 10.0881 61.3492 10.0072L59.8066 9.64326C59.0324 9.46993 58.4547 9.19261 58.0734 8.8113C57.7036 8.41843 57.5187 7.88112 57.5187 7.19937C57.5187 6.64473 57.6632 6.1652 57.952 5.76078C58.2525 5.35635 58.6569 5.05014 59.1653 4.84215C59.6737 4.62261 60.2572 4.51284 60.9159 4.51284C61.5514 4.51284 62.1118 4.62839 62.5971 4.85949C63.0824 5.09059 63.458 5.41413 63.7238 5.83011C64.0011 6.24609 64.1455 6.7314 64.1571 7.28604H62.1465C62.1465 6.91628 62.0309 6.6274 61.7998 6.41941C61.5687 6.19987 61.2452 6.09009 60.8292 6.09009C60.4132 6.09009 60.0897 6.18253 59.8586 6.36741C59.6275 6.55229 59.512 6.80073 59.512 7.11271C59.512 7.58647 59.8817 7.91001 60.6212 8.08333L62.1638 8.44731C62.8802 8.60908 63.4175 8.86907 63.7757 9.22727C64.1455 9.58548 64.3304 10.0939 64.3304 10.7525C64.3304 11.3303 64.1802 11.8329 63.8797 12.2605C63.5793 12.6764 63.1576 13 62.6145 13.2311C62.0714 13.4506 61.4474 13.5604 60.7426 13.5604C59.6795 13.5604 58.8302 13.3004 58.1947 12.7804C57.5707 12.2605 57.2587 11.5787 57.2587 10.7352Z" fill="#1E293B"/>
<path d="M67.3617 13.3351H65.2471V0.439697H67.379V5.8821C67.6448 5.46612 68.0145 5.13681 68.4883 4.89415C68.9736 4.63994 69.5282 4.51284 70.1522 4.51284C71.2037 4.51284 72.001 4.8306 72.5441 5.46612C73.0987 6.10165 73.3761 6.96827 73.3761 8.066V13.3351H71.2615V8.56864C71.2615 8.08333 71.1864 7.68468 71.0362 7.3727C70.886 7.06071 70.678 6.82961 70.4122 6.6794C70.1464 6.51763 69.8344 6.43674 69.4762 6.43674C69.0372 6.43674 68.6558 6.53496 68.3323 6.7314C68.0203 6.91628 67.7777 7.17626 67.6043 7.51136C67.4426 7.84645 67.3617 8.22777 67.3617 8.6553V13.3351Z" fill="#1E293B"/>
<path d="M74.2577 9.03662C74.2577 8.14688 74.4541 7.36692 74.847 6.69673C75.2399 6.01498 75.783 5.48345 76.4763 5.10214C77.1696 4.72083 77.9553 4.53017 78.8335 4.53017C79.7232 4.53017 80.509 4.72083 81.1907 5.10214C81.884 5.48345 82.4271 6.01498 82.82 6.69673C83.2128 7.36692 83.4093 8.14688 83.4093 9.03662C83.4093 9.92635 83.2128 10.7121 82.82 11.3938C82.4271 12.064 81.884 12.5898 81.1907 12.9711C80.509 13.3524 79.7232 13.5431 78.8335 13.5431C77.9553 13.5431 77.1696 13.3524 76.4763 12.9711C75.783 12.5898 75.2399 12.064 74.847 11.3938C74.4541 10.7121 74.2577 9.92635 74.2577 9.03662ZM76.3723 9.03662C76.3723 9.55659 76.4763 10.013 76.6842 10.4059C76.9038 10.7988 77.1927 11.105 77.5509 11.3245C77.9206 11.5441 78.3482 11.6538 78.8335 11.6538C79.3188 11.6538 79.7463 11.5441 80.1161 11.3245C80.4858 11.105 80.7747 10.7988 80.9827 10.4059C81.1907 10.013 81.2947 9.55659 81.2947 9.03662C81.2947 8.50509 81.1907 8.04867 80.9827 7.66735C80.7747 7.27448 80.4858 6.96827 80.1161 6.74873C79.7463 6.52918 79.3188 6.41941 78.8335 6.41941C78.3482 6.41941 77.9206 6.52918 77.5509 6.74873C77.1927 6.96827 76.9038 7.27448 76.6842 7.66735C76.4763 8.04867 76.3723 8.50509 76.3723 9.03662Z" fill="#1E293B"/>
<path d="M83.4582 4.77282H88.8659V6.54074H83.4582V4.77282ZM87.2193 13.3351H85.1047V2.10362H87.2193V13.3351Z" fill="#1E293B"/>
</svg>
