<svg width="43" height="9" viewBox="0 0 43 9" fill="none" xmlns="http://www.w3.org/2000/svg">
<path d="M4.25425 8.81172V4.71957L4.69825 5.95814L0.90625 0.251002H3.46225L5.61025 3.68743H5.17825L7.32625 0.251002H9.79825L6.03025 5.95814L6.47425 4.71957V8.81172H4.25425ZM10.6632 8.81172V0.251002H16.7352V1.96315H12.7872V3.60243H16.4472V5.32672H12.7872V7.08743H16.7352V8.81172H10.6632ZM16.7207 8.81172L20.6807 0.251002H22.4807L26.4647 8.81172H24.2447L23.2247 6.456L24.0767 7.07529H19.1087L19.9487 6.456L18.9407 8.81172H16.7207ZM21.5687 2.55814L20.1647 5.946L19.8287 5.37529H23.3447L23.0447 5.946L21.6287 2.55814H21.5687ZM26.9874 8.81172V0.251002H30.9834C31.9594 0.251002 32.7114 0.485765 33.2394 0.955289C33.7754 1.42481 34.0434 2.07648 34.0434 2.91029C34.0434 3.46886 33.9234 3.94648 33.6834 4.34315C33.4434 4.73172 33.0954 5.03529 32.6394 5.25386C32.1834 5.46434 31.6394 5.56957 31.0074 5.56957L31.1154 5.266H31.7154C32.0674 5.266 32.3794 5.36315 32.6514 5.55743C32.9234 5.75172 33.1474 6.02291 33.3234 6.371L34.6074 8.81172H32.1834L30.8034 6.07957C30.7154 5.90148 30.5834 5.78005 30.4074 5.71529C30.2394 5.65052 30.0474 5.61815 29.8314 5.61815H29.2074V8.81172H26.9874ZM29.2074 4.02743H30.5994C31.0314 4.02743 31.3594 3.94243 31.5834 3.77243C31.8074 3.59434 31.9194 3.33124 31.9194 2.98315C31.9194 2.64315 31.8074 2.38814 31.5834 2.21814C31.3594 2.04814 31.0314 1.96315 30.5994 1.96315H29.2074V4.02743ZM38.6752 8.94529C37.9952 8.94529 37.3472 8.86434 36.7312 8.70243C36.1232 8.53243 35.6112 8.30577 35.1952 8.02243L35.8192 6.286C36.0832 6.456 36.3712 6.60172 36.6832 6.72315C36.9952 6.84457 37.3192 6.94172 37.6552 7.01457C37.9992 7.07934 38.3472 7.11171 38.6992 7.11171C39.2272 7.11171 39.5912 7.04291 39.7912 6.90529C39.9992 6.76767 40.1032 6.58957 40.1032 6.371C40.1032 6.17671 40.0352 6.02695 39.8992 5.92171C39.7632 5.80838 39.5072 5.71124 39.1312 5.63029L37.6672 5.32672C36.8912 5.16481 36.3112 4.88553 35.9272 4.48886C35.5432 4.0841 35.3512 3.55791 35.3512 2.91029C35.3512 2.34362 35.4992 1.85386 35.7952 1.441C36.0992 1.02005 36.5232 0.696241 37.0672 0.469574C37.6112 0.234812 38.2472 0.117432 38.9752 0.117432C39.5752 0.117432 40.1392 0.202431 40.6672 0.372431C41.1952 0.534335 41.6272 0.761004 41.9632 1.05243L41.3392 2.67957C41.0192 2.44481 40.6592 2.26672 40.2592 2.14529C39.8592 2.01576 39.4152 1.951 38.9272 1.951C38.4632 1.951 38.1112 2.02386 37.8712 2.16957C37.6392 2.30719 37.5232 2.50552 37.5232 2.76457C37.5232 2.94267 37.5912 3.09648 37.7272 3.226C37.8712 3.34743 38.1312 3.44862 38.5072 3.52957L39.9472 3.821C40.7232 3.97481 41.3032 4.25005 41.6872 4.64672C42.0792 5.04338 42.2752 5.56148 42.2752 6.201C42.2752 6.75148 42.1232 7.23314 41.8192 7.646C41.5232 8.05886 41.1072 8.37862 40.5712 8.60529C40.0352 8.83196 39.4032 8.94529 38.6752 8.94529Z" fill="#3A3A3A"/>
</svg>
