<svg width="24" height="25" viewBox="0 0 24 25" fill="none" xmlns="http://www.w3.org/2000/svg">
<path d="M11.2826 4.10728C11.5131 3.64034 11.6284 3.40687 11.7848 3.33228C11.9209 3.26737 12.0791 3.26737 12.2152 3.33228C12.3716 3.40687 12.4869 3.64034 12.7174 4.10728L14.904 8.53724C14.9721 8.6751 15.0061 8.74402 15.0558 8.79754C15.0999 8.84492 15.1527 8.88331 15.2113 8.91058C15.2775 8.94138 15.3536 8.9525 15.5057 8.97473L20.397 9.68967C20.912 9.76495 21.1696 9.8026 21.2888 9.9284C21.3925 10.0379 21.4412 10.1883 21.4215 10.3377C21.3988 10.5095 21.2124 10.6911 20.8395 11.0543L17.3014 14.5004C17.1911 14.6078 17.136 14.6615 17.1004 14.7254C17.0689 14.782 17.0487 14.8442 17.0409 14.9085C17.0321 14.9811 17.0451 15.057 17.0711 15.2087L17.9059 20.0761C17.994 20.5895 18.038 20.8461 17.9553 20.9985C17.8833 21.131 17.7553 21.2239 17.607 21.2514C17.4366 21.283 17.2061 21.1618 16.7451 20.9194L12.3724 18.6198C12.2361 18.5481 12.168 18.5123 12.0962 18.4982C12.0327 18.4858 11.9673 18.4858 11.9038 18.4982C11.832 18.5123 11.7639 18.5481 11.6276 18.6198L7.25491 20.9194C6.7939 21.1618 6.5634 21.283 6.39296 21.2514C6.24467 21.2239 6.11671 21.131 6.04472 20.9985C5.96199 20.8461 6.00601 20.5894 6.09406 20.0761L6.92887 15.2087C6.9549 15.057 6.96791 14.9811 6.9591 14.9085C6.95131 14.8442 6.9311 14.782 6.89959 14.7254C6.86401 14.6615 6.80886 14.6078 6.69857 14.5004L3.16054 11.0543C2.78765 10.6911 2.6012 10.5095 2.57851 10.3377C2.55877 10.1883 2.60754 10.0379 2.71124 9.9284C2.83042 9.8026 3.08796 9.76495 3.60303 9.68967L8.4943 8.97473C8.64641 8.9525 8.72247 8.94138 8.7887 8.91058C8.84735 8.88331 8.90015 8.84492 8.94417 8.79754C8.99389 8.74402 9.02791 8.6751 9.09596 8.53724L11.2826 4.10728Z" fill="#FFB200"/>
</svg>
