<svg width="36" height="24" viewBox="0 0 36 24" fill="none" xmlns="http://www.w3.org/2000/svg">
<path d="M0.980591 23.2839V17.6496H5.94059V6.25153H9.04459L1.52459 10.4611V4.04963L7.95659 0.455344H12.8206V17.6496H17.4606V23.2839H0.980591ZM19.5921 23.2839V18.1677L26.0881 11.3677C26.8561 10.5474 27.3894 9.8782 27.6881 9.3601C28.0081 8.82042 28.1681 8.28074 28.1681 7.74106C28.1681 7.07185 27.9334 6.57534 27.4641 6.25153C27.0161 5.90614 26.3654 5.73344 25.5121 5.73344C24.7441 5.73344 23.9334 5.88455 23.0801 6.18677C22.2481 6.46741 21.3947 6.92074 20.5201 7.54677L18.4401 2.49534C19.4641 1.73979 20.6907 1.14614 22.1201 0.714391C23.5707 0.282645 25.0427 0.0667725 26.5361 0.0667725C29.2667 0.0667725 31.3361 0.660423 32.7441 1.84772C34.1734 3.01344 34.8881 4.69725 34.8881 6.89915C34.8881 8.28074 34.5894 9.59757 33.9921 10.8496C33.3947 12.1017 32.3494 13.4401 30.8561 14.8649L26.1521 19.3982V17.6496H35.6881V23.2839H19.5921Z" fill="#3A3A3A"/>
</svg>
