<svg width="44" height="9" viewBox="0 0 44 9" fill="none" xmlns="http://www.w3.org/2000/svg">
<path d="M0.613281 6.61239V0.905252H2.34128V3.01001H4.26928V0.905252H5.99728V6.61239H4.26928V4.43477H2.34128V6.61239H0.613281ZM6.92528 6.61239V0.905252H11.1093V2.23287H8.57328V3.05048H10.9173V4.3781H8.57328V5.28477H11.1093V6.61239H6.92528ZM11.7926 6.61239V0.905252H13.5206V5.17144H15.8086V6.61239H11.7926ZM16.4959 6.61239V0.905252H19.4079C20.0746 0.905252 20.576 1.07255 20.912 1.40715C21.248 1.73636 21.416 2.1816 21.416 2.74287C21.416 3.29874 21.248 3.74398 20.912 4.07858C20.576 4.41318 20.0746 4.58049 19.4079 4.58049H18.224V6.61239H16.4959ZM18.224 3.25287H19.1759C19.3786 3.25287 19.5279 3.20969 19.6239 3.12334C19.7199 3.0316 19.768 2.90477 19.768 2.74287C19.768 2.58097 19.7199 2.45684 19.6239 2.37049C19.5279 2.27874 19.3786 2.23287 19.1759 2.23287H18.224V3.25287ZM21.9039 8.1262C21.8026 8.1262 21.6746 8.1208 21.52 8.11001C21.3653 8.09921 21.2106 8.07763 21.0559 8.04525V6.71763C21.1626 6.73922 21.2666 6.75271 21.3679 6.7581C21.4746 6.7689 21.5546 6.7743 21.6079 6.7743C21.8479 6.7743 22.0106 6.70953 22.096 6.58001C22.1813 6.45049 22.224 6.24001 22.224 5.94858V0.905252H23.952V5.94049C23.952 6.437 23.8853 6.84715 23.7519 7.17096C23.6186 7.49477 23.4026 7.73493 23.1039 7.89144C22.8053 8.04795 22.4053 8.1262 21.9039 8.1262ZM27.4706 6.70953C26.6013 6.70953 25.9479 6.49636 25.5106 6.07001C25.0733 5.63827 24.8546 4.99064 24.8546 4.12715V0.905252H26.5826V4.15144C26.5826 4.51303 26.6519 4.78826 26.7906 4.97715C26.9346 5.16604 27.1613 5.26048 27.4706 5.26048C27.78 5.26048 28.0039 5.16604 28.1426 4.97715C28.2866 4.78826 28.3586 4.51303 28.3586 4.15144V0.905252H30.0546V4.12715C30.0546 4.99064 29.8413 5.63827 29.4146 6.07001C28.9933 6.49636 28.3453 6.70953 27.4706 6.70953ZM30.9413 6.61239V0.905252H32.6693V6.61239H30.9413ZM36.5493 6.70953C35.9199 6.70953 35.3733 6.58811 34.9093 6.34525C34.4506 6.09699 34.0933 5.7516 33.8373 5.30906C33.5866 4.86652 33.4613 4.34843 33.4613 3.75477C33.4613 3.16112 33.5866 2.64573 33.8373 2.20858C34.0933 1.76604 34.4506 1.42334 34.9093 1.18049C35.3733 0.932234 35.9199 0.808105 36.5493 0.808105C36.9333 0.808105 37.2853 0.859378 37.6053 0.961918C37.9306 1.05906 38.2 1.19938 38.4133 1.38287L37.9093 2.75097C37.6693 2.58906 37.4533 2.47842 37.2613 2.41906C37.0693 2.3543 36.8533 2.32192 36.6133 2.32192C36.1813 2.32192 35.848 2.44604 35.6133 2.69429C35.384 2.93715 35.2693 3.29065 35.2693 3.75477C35.2693 4.2243 35.384 4.58319 35.6133 4.83144C35.848 5.0743 36.1813 5.19572 36.6133 5.19572C36.8533 5.19572 37.0693 5.16604 37.2613 5.10668C37.4533 5.04192 37.6693 4.92858 37.9093 4.76668L38.4133 6.13477C38.2 6.31827 37.9306 6.46128 37.6053 6.56382C37.2853 6.66096 36.9333 6.70953 36.5493 6.70953ZM39.074 6.61239V0.905252H43.2579V2.23287H40.722V3.05048H43.066V4.3781H40.722V5.28477H43.2579V6.61239H39.074Z" fill="#3A3A3A"/>
</svg>
