<svg width="118" height="7" viewBox="0 0 118 7" fill="none" xmlns="http://www.w3.org/2000/svg">
<path d="M1.18208 5.49267L1.40208 4.37284H0.96875V3.74546H1.51542L1.78208 2.42998H1.12208V1.79585H1.90875L2.12208 0.73672H2.79542L2.58208 1.79585H3.32208L3.54208 0.73672H4.20875L3.99542 1.79585H4.42208V2.42998H3.86875L3.60208 3.74546H4.27542V4.37284H3.48208L3.26208 5.49267H2.58875L2.80875 4.37284H2.07542L1.86208 5.49267H1.18208ZM2.19542 3.74546H2.92875L3.19542 2.42998H2.45542L2.19542 3.74546ZM5.36615 5.49267V4.62918H6.43282V1.61371H6.91948L5.47948 2.46371V1.47879L6.73282 0.73672H7.47282V4.62918H8.47282V5.49267H5.36615ZM11.0518 5.49267V0.73672H13.1851C13.714 0.73672 14.1228 0.8649 14.4118 1.12125C14.7006 1.37288 14.8451 1.72569 14.8451 2.18038C14.8451 2.4772 14.7784 2.73355 14.6451 2.94942C14.5162 3.16057 14.3295 3.3245 14.0851 3.44188C13.8451 3.55386 13.5562 3.61053 13.2184 3.61053L13.2984 3.46212H13.5717C13.7628 3.46212 13.9318 3.51339 14.0784 3.61728C14.2295 3.72049 14.3539 3.87093 14.4517 4.06926L15.1517 5.49267H14.0051L13.2784 3.96133C13.2251 3.83045 13.1406 3.74545 13.0251 3.70498C12.914 3.65978 12.7851 3.63752 12.6384 3.63752H12.0918V5.49267H11.0518ZM12.0918 2.88196H13.0051C13.2762 2.88196 13.4828 2.82529 13.6251 2.71331C13.7673 2.60065 13.8384 2.43402 13.8384 2.2141C13.8384 1.99351 13.7673 1.82958 13.6251 1.72165C13.4828 1.60899 13.2762 1.55299 13.0051 1.55299H12.0918V2.88196ZM16.9729 5.56688C16.6795 5.56688 16.4217 5.4947 16.1995 5.35101C15.9773 5.20664 15.804 5.00224 15.6796 4.73712C15.5551 4.47132 15.4929 4.15224 15.4929 3.77918C15.4929 3.41017 15.5551 3.09311 15.6796 2.82799C15.804 2.5622 15.9773 2.35982 16.1995 2.22085C16.4217 2.07649 16.6795 2.00498 16.9729 2.00498C17.244 2.00498 17.4862 2.07243 17.6996 2.20736C17.9174 2.33755 18.0596 2.51498 18.1262 2.74029H18.0529L18.1329 2.07244H19.0996C19.0862 2.22085 19.0729 2.37128 19.0596 2.52442C19.0507 2.67283 19.0462 2.81855 19.0462 2.96291V5.49267H18.0462L18.0396 4.8518H18.1196C18.0484 5.06768 17.9062 5.24037 17.6929 5.37125C17.4796 5.50144 17.2395 5.56688 16.9729 5.56688ZM17.2795 4.79783C17.5107 4.79783 17.6974 4.71418 17.8396 4.54823C17.9818 4.3816 18.0529 4.12525 18.0529 3.77918C18.0529 3.43244 17.9818 3.17879 17.8396 3.01688C17.6974 2.85498 17.5107 2.77402 17.2795 2.77402C17.0484 2.77402 16.8618 2.85498 16.7196 3.01688C16.5774 3.17879 16.5062 3.43244 16.5062 3.77918C16.5062 4.12525 16.5751 4.3816 16.7129 4.54823C16.8551 4.71418 17.044 4.79783 17.2795 4.79783ZM21.4517 5.56688C21.0117 5.56688 20.6807 5.45625 20.4584 5.23633C20.2362 5.01101 20.1251 4.6764 20.1251 4.23116V2.83474H19.4851V2.07244H20.1251V1.23593L21.1318 0.986325V2.07244H21.9984V2.83474H21.1318V4.1772C21.1318 4.39307 21.1762 4.54148 21.2651 4.62244C21.354 4.70339 21.4674 4.74387 21.6051 4.74387C21.6896 4.74387 21.7584 4.73915 21.8118 4.73038C21.8696 4.71688 21.9296 4.69867 21.9918 4.67641V5.46569C21.9074 5.50144 21.8184 5.5264 21.7251 5.5399C21.6317 5.55744 21.5407 5.56688 21.4517 5.56688ZM24.1825 5.56688C23.5958 5.56688 23.138 5.407 22.8092 5.08791C22.4802 4.76815 22.3158 4.33438 22.3158 3.78593C22.3158 3.43041 22.3847 3.1201 22.5225 2.85498C22.6647 2.58919 22.8602 2.38275 23.1091 2.23434C23.3625 2.08121 23.658 2.00498 23.9958 2.00498C24.3292 2.00498 24.6069 2.07649 24.8292 2.22085C25.0558 2.36454 25.2247 2.56692 25.3358 2.82799C25.4513 3.08434 25.5092 3.38319 25.5092 3.72521V3.96133H23.1425V3.45538H24.7758L24.6625 3.54982C24.6625 3.26649 24.6047 3.05263 24.4892 2.90894C24.378 2.76053 24.2158 2.68633 24.0025 2.68633C23.7669 2.68633 23.5847 2.77403 23.4558 2.94942C23.3313 3.12482 23.2691 3.37644 23.2691 3.70498V3.81291C23.2691 4.14549 23.3492 4.39307 23.5092 4.55498C23.6736 4.71688 23.9092 4.79783 24.2158 4.79783C24.398 4.79783 24.5691 4.7749 24.7291 4.73038C24.8935 4.68045 25.0491 4.60422 25.1958 4.50101L25.4758 5.17561C25.3069 5.30109 25.1114 5.39823 24.8892 5.46569C24.6714 5.53315 24.4358 5.56688 24.1825 5.56688ZM27.4745 5.56688C27.1812 5.56688 26.9212 5.4947 26.6945 5.35101C26.4723 5.20664 26.2967 5.00224 26.1678 4.73712C26.0433 4.47132 25.9812 4.15224 25.9812 3.77918C25.9812 3.41017 26.0433 3.09311 26.1678 2.82799C26.2923 2.5622 26.4678 2.35982 26.6945 2.22085C26.9212 2.07649 27.1812 2.00498 27.4745 2.00498C27.7412 2.00498 27.9789 2.06974 28.1878 2.20061C28.4011 2.32609 28.5434 2.49743 28.6145 2.71331H28.5278V0.527595H29.5345V5.49267H28.5412V4.82482H28.6278C28.5567 5.04946 28.4145 5.22958 28.2011 5.3645C27.9878 5.49942 27.7456 5.56688 27.4745 5.56688ZM27.7745 4.79783C28.0056 4.79783 28.1923 4.71418 28.3345 4.54823C28.4767 4.3816 28.5478 4.12525 28.5478 3.77918C28.5478 3.43244 28.4767 3.17879 28.3345 3.01688C28.1923 2.85498 28.0056 2.77402 27.7745 2.77402C27.5433 2.77402 27.3545 2.85498 27.2078 3.01688C27.0656 3.17879 26.9945 3.43244 26.9945 3.77918C26.9945 4.12525 27.0656 4.3816 27.2078 4.54823C27.3545 4.71418 27.5433 4.79783 27.7745 4.79783ZM32.3082 5.49267V0.73672H33.3482V2.80776H33.3615L35.2882 0.73672H36.5215L34.1549 3.22601L34.1616 2.79426L36.6682 5.49267H35.3949L33.3615 3.32045H33.3482V5.49267H32.3082ZM36.8054 5.49267V2.96291C36.8054 2.81855 36.8009 2.67283 36.792 2.52442C36.7831 2.37128 36.7698 2.22085 36.752 2.07244H37.7187L37.792 2.70657H37.712C37.8232 2.48125 37.981 2.30855 38.1854 2.18712C38.3898 2.06569 38.6276 2.00498 38.8987 2.00498C39.2943 2.00498 39.5898 2.12168 39.7854 2.35577C39.9854 2.58513 40.0854 2.94268 40.0854 3.42839V5.49267H39.0787V3.47561C39.0787 3.22803 39.0343 3.05264 38.9454 2.94942C38.8565 2.84553 38.7232 2.79426 38.5454 2.79426C38.3232 2.79426 38.1453 2.86577 38.012 3.01013C37.8787 3.1491 37.812 3.33799 37.812 3.5768V5.49267H36.8054ZM42.4939 5.56688C42.1339 5.56688 41.8206 5.4947 41.5539 5.35101C41.2917 5.2026 41.0873 4.99549 40.9406 4.73038C40.7983 4.46458 40.7273 4.14752 40.7273 3.77918C40.7273 3.4149 40.7983 3.09986 40.9406 2.83474C41.0873 2.56894 41.2917 2.36454 41.5539 2.22085C41.8206 2.07649 42.1339 2.00498 42.4939 2.00498C42.8539 2.00498 43.1673 2.07649 43.434 2.22085C43.7006 2.36454 43.905 2.56894 44.0473 2.83474C44.1939 3.09986 44.2673 3.4149 44.2673 3.77918C44.2673 4.14752 44.1939 4.46458 44.0473 4.73038C43.905 4.99549 43.7006 5.2026 43.434 5.35101C43.1673 5.4947 42.8539 5.56688 42.4939 5.56688ZM42.4939 4.79783C42.725 4.79783 42.9073 4.71418 43.0406 4.54823C43.1784 4.3816 43.2473 4.12525 43.2473 3.77918C43.2473 3.43244 43.1784 3.17879 43.0406 3.01688C42.9073 2.85498 42.725 2.77402 42.4939 2.77402C42.2628 2.77402 42.0783 2.85498 41.9406 3.01688C41.8073 3.17879 41.7406 3.43244 41.7406 3.77918C41.7406 4.12525 41.8073 4.3816 41.9406 4.54823C42.0783 4.71418 42.2628 4.79783 42.4939 4.79783ZM45.7926 5.49267L44.4325 2.07244H45.4659L46.3592 4.53474H46.1859L47.0859 2.07244H47.7526L48.6459 4.53474H48.5059L49.3859 2.07244H50.3592L49.0059 5.49267H48.1392L47.1792 2.96966H47.5859L46.6592 5.49267H45.7926ZM50.7768 5.49267V0.527595H51.7834V5.49267H50.7768ZM54.3062 5.56688C53.7195 5.56688 53.2617 5.407 52.9328 5.08791C52.604 4.76815 52.4395 4.33438 52.4395 3.78593C52.4395 3.43041 52.5083 3.1201 52.6461 2.85498C52.7883 2.58919 52.984 2.38275 53.2328 2.23434C53.4862 2.08121 53.7817 2.00498 54.1195 2.00498C54.4528 2.00498 54.7306 2.07649 54.9528 2.22085C55.1795 2.36454 55.3484 2.56692 55.4595 2.82799C55.575 3.08434 55.6328 3.38319 55.6328 3.72521V3.96133H53.2662V3.45538H54.8995L54.7862 3.54982C54.7862 3.26649 54.7283 3.05263 54.6128 2.90894C54.5017 2.76053 54.3395 2.68633 54.1262 2.68633C53.8906 2.68633 53.7084 2.77403 53.5795 2.94942C53.455 3.12482 53.3928 3.37644 53.3928 3.70498V3.81291C53.3928 4.14549 53.4728 4.39307 53.6328 4.55498C53.7973 4.71688 54.0328 4.79783 54.3395 4.79783C54.5217 4.79783 54.6928 4.7749 54.8528 4.73038C55.0173 4.68045 55.1728 4.60422 55.3195 4.50101L55.5995 5.17561C55.4306 5.30109 55.235 5.39823 55.0128 5.46569C54.795 5.53315 54.5595 5.56688 54.3062 5.56688ZM57.5982 5.56688C57.3049 5.56688 57.0449 5.4947 56.8182 5.35101C56.596 5.20664 56.4204 5.00224 56.2916 4.73712C56.1671 4.47132 56.1049 4.15224 56.1049 3.77918C56.1049 3.41017 56.1671 3.09311 56.2916 2.82799C56.416 2.5622 56.5916 2.35982 56.8182 2.22085C57.0449 2.07649 57.3049 2.00498 57.5982 2.00498C57.8649 2.00498 58.1026 2.06974 58.3116 2.20061C58.5249 2.32609 58.6671 2.49743 58.7381 2.71331H58.6516V0.527595H59.6581V5.49267H58.6649V4.82482H58.7514C58.6801 5.04946 58.5382 5.22958 58.3249 5.3645C58.1115 5.49942 57.8693 5.56688 57.5982 5.56688ZM57.8982 4.79783C58.1293 4.79783 58.316 4.71418 58.4582 4.54823C58.6004 4.3816 58.6714 4.12525 58.6714 3.77918C58.6714 3.43244 58.6004 3.17879 58.4582 3.01688C58.316 2.85498 58.1293 2.77402 57.8982 2.77402C57.6671 2.77402 57.4782 2.85498 57.3316 3.01688C57.1893 3.17879 57.1182 3.43244 57.1182 3.77918C57.1182 4.12525 57.1893 4.3816 57.3316 4.54823C57.4782 4.71418 57.6671 4.79783 57.8982 4.79783ZM62.0908 7.00378C61.7661 7.00378 61.4774 6.97006 61.2241 6.9026C60.9707 6.83919 60.7441 6.74272 60.5441 6.61252L60.7374 5.88395C60.8614 5.9649 60.9927 6.02966 61.1307 6.07958C61.2727 6.13355 61.4174 6.17133 61.5641 6.19426C61.7148 6.22125 61.8641 6.23474 62.0108 6.23474C62.3081 6.23474 62.5308 6.16256 62.6774 6.01886C62.8241 5.8745 62.8974 5.6701 62.8974 5.40498V4.69664H62.9641C62.8927 4.91252 62.7507 5.08522 62.5374 5.21609C62.3241 5.34629 62.0841 5.41172 61.8174 5.41172C61.5147 5.41172 61.2507 5.34156 61.0241 5.2026C60.8014 5.06295 60.6281 4.8653 60.5041 4.60895C60.3794 4.3526 60.3174 4.05105 60.3174 3.70498C60.3174 3.35823 60.3794 3.05736 60.5041 2.80101C60.6281 2.54466 60.8014 2.34902 61.0241 2.2141C61.2507 2.07446 61.5147 2.00498 61.8174 2.00498C62.0881 2.00498 62.3261 2.06974 62.5308 2.20061C62.7394 2.32609 62.8794 2.49474 62.9508 2.70657L62.8974 2.67958L62.9641 2.07244H63.9374C63.9194 2.22085 63.9061 2.37128 63.8974 2.52442C63.8881 2.67283 63.8841 2.81855 63.8841 2.96291V5.29029C63.8841 5.84347 63.7308 6.26577 63.4241 6.55855C63.1174 6.85537 62.6728 7.00378 62.0908 7.00378ZM62.1174 4.64267C62.3528 4.64267 62.5394 4.56172 62.6774 4.39982C62.8148 4.23791 62.8841 4.00585 62.8841 3.70498C62.8841 3.40343 62.8148 3.17406 62.6774 3.01688C62.5394 2.85498 62.3528 2.77402 62.1174 2.77402C61.8728 2.77402 61.6794 2.85498 61.5374 3.01688C61.3994 3.17406 61.3307 3.40343 61.3307 3.70498C61.3307 4.00585 61.3994 4.23791 61.5374 4.39982C61.6794 4.56172 61.8728 4.64267 62.1174 4.64267ZM66.4028 5.56688C65.8161 5.56688 65.3581 5.407 65.0294 5.08791C64.7001 4.76815 64.5361 4.33438 64.5361 3.78593C64.5361 3.43041 64.6047 3.1201 64.7427 2.85498C64.8847 2.58919 65.0801 2.38275 65.3294 2.23434C65.5828 2.08121 65.8781 2.00498 66.2161 2.00498C66.5494 2.00498 66.8268 2.07649 67.0494 2.22085C67.2761 2.36454 67.4448 2.56692 67.5561 2.82799C67.6714 3.08434 67.7294 3.38319 67.7294 3.72521V3.96133H65.3628V3.45538H66.9961L66.8828 3.54982C66.8828 3.26649 66.8247 3.05263 66.7094 2.90894C66.5981 2.76053 66.4361 2.68633 66.2227 2.68633C65.9867 2.68633 65.8048 2.77403 65.6761 2.94942C65.5514 3.12482 65.4894 3.37644 65.4894 3.70498V3.81291C65.4894 4.14549 65.5694 4.39307 65.7294 4.55498C65.8934 4.71688 66.1294 4.79783 66.4361 4.79783C66.6181 4.79783 66.7894 4.7749 66.9494 4.73038C67.1134 4.68045 67.2694 4.60422 67.4161 4.50101L67.6961 5.17561C67.5268 5.30109 67.3314 5.39823 67.1094 5.46569C66.8914 5.53315 66.6561 5.56688 66.4028 5.56688ZM70.3161 5.49267V0.73672H72.4827C72.9981 0.73672 73.3961 0.846684 73.6761 1.06728C73.9561 1.2872 74.0961 1.58875 74.0961 1.97125C74.0961 2.25458 74.0114 2.49474 73.8428 2.69307C73.6781 2.89073 73.4514 3.02363 73.1628 3.09109V2.98315C73.5008 3.04117 73.7607 3.17204 73.9427 3.37442C74.1294 3.57208 74.2227 3.83045 74.2227 4.15022C74.2227 4.57252 74.0741 4.90307 73.7761 5.14188C73.4828 5.3753 73.0761 5.49267 72.5561 5.49267H70.3161ZM71.3094 4.71014H72.4294C72.6874 4.71014 72.8848 4.66022 73.0228 4.56172C73.1608 4.46256 73.2294 4.30537 73.2294 4.0895C73.2294 3.8689 73.1608 3.71172 73.0228 3.61728C72.8848 3.51811 72.6874 3.46887 72.4294 3.46887H71.3094V4.71014ZM71.3094 2.69307H72.2961C72.5674 2.69307 72.7674 2.64315 72.8961 2.54466C73.0248 2.44549 73.0894 2.29708 73.0894 2.09942C73.0894 1.90581 73.0248 1.75942 72.8961 1.66093C72.7674 1.56176 72.5674 1.51252 72.2961 1.51252H71.3094V2.69307ZM76.2048 5.56688C75.9114 5.56688 75.6534 5.4947 75.4314 5.35101C75.2094 5.20664 75.0361 5.00224 74.9114 4.73712C74.7868 4.47132 74.7248 4.15224 74.7248 3.77918C74.7248 3.41017 74.7868 3.09311 74.9114 2.82799C75.0361 2.5622 75.2094 2.35982 75.4314 2.22085C75.6534 2.07649 75.9114 2.00498 76.2048 2.00498C76.4761 2.00498 76.7181 2.07243 76.9314 2.20736C77.1494 2.33755 77.2914 2.51498 77.3581 2.74029H77.2848L77.3647 2.07244H78.3314C78.3181 2.22085 78.3047 2.37128 78.2914 2.52442C78.2827 2.67283 78.2781 2.81855 78.2781 2.96291V5.49267H77.2781L77.2714 4.8518H77.3514C77.2801 5.06768 77.1381 5.24037 76.9248 5.37125C76.7114 5.50144 76.4714 5.56688 76.2048 5.56688ZM76.5114 4.79783C76.7427 4.79783 76.9294 4.71418 77.0714 4.54823C77.2134 4.3816 77.2848 4.12525 77.2848 3.77918C77.2848 3.43244 77.2134 3.17879 77.0714 3.01688C76.9294 2.85498 76.7427 2.77402 76.5114 2.77402C76.2801 2.77402 76.0934 2.85498 75.9514 3.01688C75.8094 3.17879 75.7381 3.43244 75.7381 3.77918C75.7381 4.12525 75.8068 4.3816 75.9448 4.54823C76.0868 4.71418 76.2761 4.79783 76.5114 4.79783ZM80.3501 5.56688C80.0481 5.56688 79.7728 5.53315 79.5234 5.46569C79.2748 5.39823 79.0634 5.30379 78.8901 5.18236L79.1501 4.50775C79.3234 4.61569 79.5147 4.70069 79.7234 4.7641C79.9367 4.82684 80.1481 4.85855 80.3568 4.85855C80.5528 4.85855 80.6968 4.82684 80.7901 4.7641C80.8834 4.70069 80.9301 4.61569 80.9301 4.50775C80.9301 4.41736 80.8994 4.34788 80.8368 4.29863C80.7794 4.24871 80.6881 4.21295 80.5634 4.19069L79.8768 4.06251C79.5881 4.00382 79.3681 3.89589 79.2168 3.73871C79.0661 3.58085 78.9901 3.37644 78.9901 3.12482C78.9901 2.90422 79.0481 2.71061 79.1634 2.54466C79.2834 2.37331 79.4548 2.24109 79.6768 2.14664C79.8994 2.0522 80.1594 2.00498 80.4567 2.00498C80.7101 2.00498 80.9501 2.03601 81.1768 2.09942C81.4034 2.16216 81.5967 2.25863 81.7567 2.3895L81.4834 3.04387C81.3461 2.93998 81.1861 2.857 81.0034 2.79426C80.8261 2.73085 80.6547 2.69982 80.4901 2.69982C80.2767 2.69982 80.1234 2.73557 80.0301 2.80776C79.9367 2.87522 79.8901 2.96292 79.8901 3.07085C79.8901 3.1518 79.9168 3.21926 79.9701 3.27323C80.0281 3.3272 80.1148 3.36767 80.2301 3.39466L80.9234 3.52283C81.2214 3.5768 81.4481 3.67799 81.6034 3.8264C81.7594 3.97482 81.8368 4.17922 81.8368 4.4403C81.8368 4.67843 81.7748 4.88081 81.6501 5.04744C81.5261 5.21339 81.3501 5.34157 81.1234 5.43196C80.9014 5.52169 80.6434 5.56688 80.3501 5.56688ZM84.1628 5.56688C83.5761 5.56688 83.1188 5.407 82.7894 5.08791C82.4608 4.76815 82.2961 4.33438 82.2961 3.78593C82.2961 3.43041 82.3654 3.1201 82.5027 2.85498C82.6454 2.58919 82.8407 2.38275 83.0894 2.23434C83.3427 2.08121 83.6388 2.00498 83.9761 2.00498C84.3094 2.00498 84.5874 2.07649 84.8094 2.22085C85.0361 2.36454 85.2054 2.56692 85.3161 2.82799C85.4321 3.08434 85.4894 3.38319 85.4894 3.72521V3.96133H83.1228V3.45538H84.7561L84.6428 3.54982C84.6428 3.26649 84.5854 3.05263 84.4694 2.90894C84.3587 2.76053 84.1961 2.68633 83.9827 2.68633C83.7474 2.68633 83.5654 2.77403 83.4361 2.94942C83.3121 3.12482 83.2494 3.37644 83.2494 3.70498V3.81291C83.2494 4.14549 83.3294 4.39307 83.4894 4.55498C83.6541 4.71688 83.8894 4.79783 84.1961 4.79783C84.3788 4.79783 84.5494 4.7749 84.7094 4.73038C84.8741 4.68045 85.0294 4.60422 85.1761 4.50101L85.4561 5.17561C85.2874 5.30109 85.0921 5.39823 84.8694 5.46569C84.6521 5.53315 84.4161 5.56688 84.1628 5.56688ZM89.7767 5.56688C89.3987 5.56688 89.0454 5.51966 88.7168 5.42522C88.3874 5.33077 88.1074 5.1999 87.8768 5.03394L88.1834 4.21093C88.3341 4.31414 88.4941 4.40184 88.6634 4.47402C88.8321 4.54553 89.0101 4.6022 89.1967 4.64267C89.3834 4.67843 89.5788 4.69664 89.7834 4.69664C90.1034 4.69664 90.3301 4.64672 90.4634 4.54823C90.6007 4.44906 90.6701 4.32291 90.6701 4.17045C90.6701 4.03081 90.6234 3.9249 90.5301 3.85339C90.4407 3.77648 90.2767 3.71172 90.0367 3.65775L89.2501 3.49585C88.8188 3.40545 88.4968 3.25299 88.2834 3.03712C88.0701 2.82125 87.9634 2.53319 87.9634 2.17363C87.9634 1.86736 88.0434 1.60224 88.2034 1.3776C88.3634 1.15228 88.5874 0.976883 88.8768 0.851407C89.1701 0.725256 89.5121 0.662519 89.9034 0.662519C90.2367 0.662519 90.5474 0.70974 90.8368 0.804185C91.1254 0.898629 91.3634 1.03355 91.5501 1.20895L91.2434 1.97799C91.0608 1.82958 90.8567 1.71895 90.6301 1.64744C90.4074 1.57053 90.1587 1.53275 89.8834 1.53275C89.5941 1.53275 89.3721 1.58402 89.2168 1.68791C89.0654 1.79113 88.9901 1.93279 88.9901 2.11291C88.9901 2.24783 89.0367 2.3578 89.1301 2.44347C89.2234 2.52442 89.3874 2.58919 89.6234 2.63911L90.3968 2.79426C90.8368 2.88398 91.1634 3.03442 91.3768 3.24624C91.5901 3.4574 91.6967 3.73871 91.6967 4.0895C91.6967 4.38632 91.6167 4.6447 91.4567 4.86529C91.3007 5.08521 91.0788 5.25859 90.7901 5.38474C90.5054 5.50617 90.1674 5.56688 89.7767 5.56688ZM93.9981 5.56688C93.6381 5.56688 93.3248 5.4947 93.0581 5.35101C92.7954 5.2026 92.5914 4.99549 92.4447 4.73038C92.3021 4.46458 92.2314 4.14752 92.2314 3.77918C92.2314 3.4149 92.3021 3.09986 92.4447 2.83474C92.5914 2.56894 92.7954 2.36454 93.0581 2.22085C93.3248 2.07649 93.6381 2.00498 93.9981 2.00498C94.3581 2.00498 94.6714 2.07649 94.9381 2.22085C95.2047 2.36454 95.4087 2.56894 95.5514 2.83474C95.6981 3.09986 95.7714 3.4149 95.7714 3.77918C95.7714 4.14752 95.6981 4.46458 95.5514 4.73038C95.4087 4.99549 95.2047 5.2026 94.9381 5.35101C94.6714 5.4947 94.3581 5.56688 93.9981 5.56688ZM93.9981 4.79783C94.2287 4.79783 94.4114 4.71418 94.5448 4.54823C94.6821 4.3816 94.7514 4.12525 94.7514 3.77918C94.7514 3.43244 94.6821 3.17879 94.5448 3.01688C94.4114 2.85498 94.2287 2.77402 93.9981 2.77402C93.7667 2.77402 93.5821 2.85498 93.4447 3.01688C93.3114 3.17879 93.2448 3.43244 93.2448 3.77918C93.2448 4.12525 93.3114 4.3816 93.4447 4.54823C93.5821 4.71418 93.7667 4.79783 93.9981 4.79783ZM96.6421 5.49267V2.83474H96.0021V2.07244H96.9288L96.6421 2.33553V1.84307C96.6421 1.39784 96.7554 1.06255 96.9821 0.837912C97.2134 0.612594 97.5574 0.50061 98.0154 0.50061C98.1174 0.50061 98.2268 0.507356 98.3421 0.520848C98.4621 0.53434 98.5668 0.561326 98.6554 0.601802V1.38434C98.5934 1.36141 98.5221 1.34589 98.4421 1.33712C98.3621 1.32363 98.2841 1.31688 98.2088 1.31688C98.1068 1.31688 98.0107 1.33442 97.9221 1.37085C97.8374 1.4066 97.7687 1.46732 97.7154 1.55299C97.6667 1.63395 97.6421 1.74391 97.6421 1.88355V2.24109L97.5021 2.07244H98.4954V2.83474H97.6487V5.49267H96.6421ZM100.345 5.56688C99.9047 5.56688 99.5741 5.45625 99.3514 5.23633C99.1294 5.01101 99.0181 4.6764 99.0181 4.23116V2.83474H98.3781V2.07244H99.0181V1.23593L100.025 0.986325V2.07244H100.891V2.83474H100.025V4.1772C100.025 4.39307 100.069 4.54148 100.158 4.62244C100.247 4.70339 100.361 4.74387 100.498 4.74387C100.583 4.74387 100.651 4.73915 100.705 4.73038C100.763 4.71688 100.823 4.69867 100.885 4.67641V5.46569C100.801 5.50144 100.711 5.5264 100.618 5.5399C100.525 5.55744 100.434 5.56688 100.345 5.56688ZM102.42 5.49267L101.06 2.07244H102.093L102.987 4.53474H102.813L103.713 2.07244H104.38L105.273 4.53474H105.133L106.013 2.07244H106.987L105.633 5.49267H104.767L103.807 2.96966H104.213L103.287 5.49267H102.42ZM108.653 5.56688C108.359 5.56688 108.101 5.4947 107.879 5.35101C107.657 5.20664 107.483 5.00224 107.359 4.73712C107.235 4.47132 107.173 4.15224 107.173 3.77918C107.173 3.41017 107.235 3.09311 107.359 2.82799C107.483 2.5622 107.657 2.35982 107.879 2.22085C108.101 2.07649 108.359 2.00498 108.653 2.00498C108.923 2.00498 109.166 2.07243 109.379 2.20736C109.597 2.33755 109.739 2.51498 109.806 2.74029H109.733L109.813 2.07244H110.779C110.766 2.22085 110.753 2.37128 110.739 2.52442C110.73 2.67283 110.726 2.81855 110.726 2.96291V5.49267H109.726L109.719 4.8518H109.799C109.728 5.06768 109.586 5.24037 109.373 5.37125C109.159 5.50144 108.919 5.56688 108.653 5.56688ZM108.959 4.79783C109.19 4.79783 109.377 4.71418 109.519 4.54823C109.661 4.3816 109.733 4.12525 109.733 3.77918C109.733 3.43244 109.661 3.17879 109.519 3.01688C109.377 2.85498 109.19 2.77402 108.959 2.77402C108.728 2.77402 108.541 2.85498 108.399 3.01688C108.257 3.17879 108.186 3.43244 108.186 3.77918C108.186 4.12525 108.255 4.3816 108.393 4.54823C108.535 4.71418 108.723 4.79783 108.959 4.79783ZM111.545 5.49267V2.97641C111.545 2.828 111.54 2.67688 111.531 2.52442C111.527 2.37128 111.516 2.22085 111.498 2.07244H112.465L112.578 3.07085H112.425C112.469 2.82799 112.54 2.62764 112.638 2.47046C112.74 2.3126 112.865 2.19589 113.011 2.11966C113.163 2.04275 113.333 2.00498 113.525 2.00498C113.609 2.00498 113.676 2.00902 113.725 2.01847C113.773 2.02252 113.823 2.03399 113.871 2.0522L113.865 2.94942C113.771 2.90895 113.691 2.88399 113.625 2.87522C113.563 2.86172 113.483 2.85498 113.385 2.85498C113.198 2.85498 113.043 2.89073 112.918 2.96291C112.798 3.03442 112.707 3.14033 112.645 3.27998C112.587 3.41895 112.558 3.5876 112.558 3.78593V5.49267H111.545ZM115.934 5.56688C115.347 5.56688 114.889 5.407 114.561 5.08791C114.231 4.76815 114.067 4.33438 114.067 3.78593C114.067 3.43041 114.136 3.1201 114.274 2.85498C114.416 2.58919 114.611 2.38275 114.861 2.23434C115.114 2.08121 115.409 2.00498 115.747 2.00498C116.081 2.00498 116.358 2.07649 116.581 2.22085C116.807 2.36454 116.976 2.56692 117.087 2.82799C117.203 3.08434 117.261 3.38319 117.261 3.72521V3.96133H114.894V3.45538H116.527L116.414 3.54982C116.414 3.26649 116.356 3.05263 116.241 2.90894C116.129 2.76053 115.967 2.68633 115.754 2.68633C115.518 2.68633 115.336 2.77403 115.207 2.94942C115.083 3.12482 115.021 3.37644 115.021 3.70498V3.81291C115.021 4.14549 115.101 4.39307 115.261 4.55498C115.425 4.71688 115.661 4.79783 115.967 4.79783C116.149 4.79783 116.321 4.7749 116.481 4.73038C116.645 4.68045 116.801 4.60422 116.947 4.50101L117.227 5.17561C117.058 5.30109 116.863 5.39823 116.641 5.46569C116.423 5.53315 116.187 5.56688 115.934 5.56688Z" fill="#3A3A3A"/>
</svg>
