<svg width="138" height="17" viewBox="0 0 138 17" fill="none" xmlns="http://www.w3.org/2000/svg">
<path d="M0 14.48H14V0.48H0V14.48ZM21.4014 12.968V9.958H18.4334V9.006H21.4014V6.066H22.3814V9.006H25.3494V9.958H22.3814V12.968H21.4014ZM27.8219 13.5V12.394H30.1319V4.736H30.7899L28.0319 6.444V5.17L30.4959 3.63H31.4339V12.394H33.6039V13.5H27.8219ZM41.3359 16.02C40.9345 15.3293 40.6032 14.648 40.3419 13.976C40.0899 13.3133 39.9032 12.6413 39.7819 11.96C39.6699 11.2693 39.6139 10.5553 39.6139 9.818C39.6139 9.07133 39.6699 8.35733 39.7819 7.676C39.9032 6.99467 40.0899 6.32267 40.3419 5.66C40.6032 4.99733 40.9345 4.32067 41.3359 3.63H42.3719C41.8959 4.68467 41.5365 5.72533 41.2939 6.752C41.0512 7.76933 40.9299 8.79133 40.9299 9.818C40.9299 10.8447 41.0512 11.8713 41.2939 12.898C41.5365 13.9247 41.8959 14.9653 42.3719 16.02H41.3359ZM46.952 13.626C45.8133 13.626 44.9313 13.3833 44.306 12.898C43.6806 12.4127 43.368 11.736 43.368 10.868C43.368 10.1867 43.578 9.622 43.998 9.174C44.4273 8.71667 44.9826 8.44133 45.664 8.348V8.572C45.0386 8.44133 44.5393 8.15667 44.166 7.718C43.802 7.27933 43.62 6.752 43.62 6.136C43.62 5.31467 43.914 4.67067 44.502 4.204C45.0993 3.73733 45.916 3.504 46.952 3.504C47.9973 3.504 48.814 3.73733 49.402 4.204C49.9993 4.67067 50.298 5.31467 50.298 6.136C50.298 6.752 50.1206 7.284 49.766 7.732C49.4206 8.18 48.94 8.46 48.324 8.572V8.348C49.0053 8.44133 49.542 8.71667 49.934 9.174C50.3353 9.622 50.536 10.1867 50.536 10.868C50.536 11.736 50.2233 12.4127 49.598 12.898C48.982 13.3833 48.1 13.626 46.952 13.626ZM46.952 12.576C47.7453 12.576 48.3333 12.4267 48.716 12.128C49.108 11.8293 49.304 11.386 49.304 10.798C49.304 10.2007 49.108 9.75733 48.716 9.468C48.3333 9.17867 47.7453 9.034 46.952 9.034C46.168 9.034 45.58 9.17867 45.188 9.468C44.796 9.75733 44.6 10.2007 44.6 10.798C44.6 11.386 44.796 11.8293 45.188 12.128C45.58 12.4267 46.168 12.576 46.952 12.576ZM46.952 7.97C47.6333 7.97 48.1513 7.82067 48.506 7.522C48.87 7.214 49.052 6.78933 49.052 6.248C49.052 5.716 48.87 5.30067 48.506 5.002C48.1513 4.70333 47.6333 4.554 46.952 4.554C46.28 4.554 45.762 4.70333 45.398 5.002C45.034 5.30067 44.852 5.716 44.852 6.248C44.852 6.78933 45.034 7.214 45.398 7.522C45.762 7.82067 46.28 7.97 46.952 7.97ZM55.2765 13.626C54.6045 13.626 53.9605 13.5233 53.3445 13.318C52.7378 13.1127 52.2292 12.8233 51.8185 12.45L52.2805 11.442C52.7378 11.8153 53.2092 12.086 53.6945 12.254C54.1798 12.422 54.6932 12.506 55.2345 12.506C55.9532 12.506 56.4992 12.3567 56.8725 12.058C57.2458 11.75 57.4325 11.3113 57.4325 10.742C57.4325 10.182 57.2412 9.75733 56.8585 9.468C56.4852 9.17867 55.9345 9.034 55.2065 9.034H53.6945V7.956H55.1085C55.7245 7.956 56.2192 7.79733 56.5925 7.48C56.9658 7.16267 57.1525 6.72867 57.1525 6.178C57.1525 5.674 56.9798 5.29133 56.6345 5.03C56.2985 4.75933 55.8178 4.624 55.1925 4.624C54.1378 4.624 53.2232 4.99267 52.4485 5.73L51.9865 4.736C52.3785 4.344 52.8638 4.04067 53.4425 3.826C54.0212 3.61133 54.6325 3.504 55.2765 3.504C56.2565 3.504 57.0265 3.728 57.5865 4.176C58.1465 4.624 58.4265 5.24933 58.4265 6.052C58.4265 6.65867 58.2538 7.18133 57.9085 7.62C57.5725 8.04933 57.1105 8.334 56.5225 8.474V8.32C57.2132 8.44133 57.7498 8.726 58.1325 9.174C58.5152 9.61267 58.7065 10.1633 58.7065 10.826C58.7065 11.694 58.3985 12.38 57.7825 12.884C57.1758 13.3787 56.3405 13.626 55.2765 13.626ZM63.671 13.626C62.999 13.626 62.355 13.5233 61.739 13.318C61.1323 13.1127 60.6237 12.8233 60.213 12.45L60.675 11.442C61.1323 11.8153 61.6037 12.086 62.089 12.254C62.5743 12.422 63.0877 12.506 63.629 12.506C64.3477 12.506 64.8937 12.3567 65.267 12.058C65.6403 11.75 65.827 11.3113 65.827 10.742C65.827 10.182 65.6357 9.75733 65.253 9.468C64.8797 9.17867 64.329 9.034 63.601 9.034H62.089V7.956H63.503C64.119 7.956 64.6137 7.79733 64.987 7.48C65.3603 7.16267 65.547 6.72867 65.547 6.178C65.547 5.674 65.3743 5.29133 65.029 5.03C64.693 4.75933 64.2123 4.624 63.587 4.624C62.5323 4.624 61.6177 4.99267 60.843 5.73L60.381 4.736C60.773 4.344 61.2583 4.04067 61.837 3.826C62.4157 3.61133 63.027 3.504 63.671 3.504C64.651 3.504 65.421 3.728 65.981 4.176C66.541 4.624 66.821 5.24933 66.821 6.052C66.821 6.65867 66.6483 7.18133 66.303 7.62C65.967 8.04933 65.505 8.334 64.917 8.474V8.32C65.6077 8.44133 66.1443 8.726 66.527 9.174C66.9097 9.61267 67.101 10.1633 67.101 10.826C67.101 11.694 66.793 12.38 66.177 12.884C65.5703 13.3787 64.735 13.626 63.671 13.626ZM69.3495 16.02H68.2995C68.7755 14.9653 69.1349 13.9247 69.3775 12.898C69.6295 11.8713 69.7555 10.8447 69.7555 9.818C69.7555 8.80067 69.6295 7.77867 69.3775 6.752C69.1349 5.72533 68.7755 4.68467 68.2995 3.63H69.3495C69.7509 4.32067 70.0775 5.002 70.3295 5.674C70.5909 6.33667 70.7775 7.00867 70.8895 7.69C71.0109 8.37133 71.0715 9.08067 71.0715 9.818C71.0715 10.5647 71.0109 11.2787 70.8895 11.96C70.7775 12.6413 70.5909 13.3133 70.3295 13.976C70.0775 14.648 69.7509 15.3293 69.3495 16.02ZM80.337 13.626C79.665 13.626 79.021 13.5233 78.405 13.318C77.7984 13.1127 77.2897 12.8233 76.879 12.45L77.341 11.442C77.7984 11.8153 78.2697 12.086 78.755 12.254C79.2404 12.422 79.7537 12.506 80.295 12.506C81.0137 12.506 81.5597 12.3567 81.933 12.058C82.3064 11.75 82.493 11.3113 82.493 10.742C82.493 10.182 82.3017 9.75733 81.919 9.468C81.5457 9.17867 80.995 9.034 80.267 9.034H78.755V7.956H80.169C80.785 7.956 81.2797 7.79733 81.653 7.48C82.0264 7.16267 82.213 6.72867 82.213 6.178C82.213 5.674 82.0404 5.29133 81.695 5.03C81.359 4.75933 80.8784 4.624 80.253 4.624C79.1984 4.624 78.2837 4.99267 77.509 5.73L77.047 4.736C77.439 4.344 77.9244 4.04067 78.503 3.826C79.0817 3.61133 79.693 3.504 80.337 3.504C81.317 3.504 82.087 3.728 82.647 4.176C83.207 4.624 83.487 5.24933 83.487 6.052C83.487 6.65867 83.3144 7.18133 82.969 7.62C82.633 8.04933 82.171 8.334 81.583 8.474V8.32C82.2737 8.44133 82.8104 8.726 83.193 9.174C83.5757 9.61267 83.767 10.1633 83.767 10.826C83.767 11.694 83.459 12.38 82.843 12.884C82.2364 13.3787 81.401 13.626 80.337 13.626ZM88.8016 13.626C87.6629 13.626 86.7809 13.3833 86.1556 12.898C85.5302 12.4127 85.2176 11.736 85.2176 10.868C85.2176 10.1867 85.4276 9.622 85.8476 9.174C86.2769 8.71667 86.8322 8.44133 87.5136 8.348V8.572C86.8882 8.44133 86.3889 8.15667 86.0156 7.718C85.6516 7.27933 85.4696 6.752 85.4696 6.136C85.4696 5.31467 85.7636 4.67067 86.3516 4.204C86.9489 3.73733 87.7656 3.504 88.8016 3.504C89.8469 3.504 90.6636 3.73733 91.2516 4.204C91.8489 4.67067 92.1476 5.31467 92.1476 6.136C92.1476 6.752 91.9702 7.284 91.6156 7.732C91.2702 8.18 90.7896 8.46 90.1736 8.572V8.348C90.8549 8.44133 91.3916 8.71667 91.7836 9.174C92.1849 9.622 92.3856 10.1867 92.3856 10.868C92.3856 11.736 92.0729 12.4127 91.4476 12.898C90.8316 13.3833 89.9496 13.626 88.8016 13.626ZM88.8016 12.576C89.5949 12.576 90.1829 12.4267 90.5656 12.128C90.9576 11.8293 91.1536 11.386 91.1536 10.798C91.1536 10.2007 90.9576 9.75733 90.5656 9.468C90.1829 9.17867 89.5949 9.034 88.8016 9.034C88.0176 9.034 87.4296 9.17867 87.0376 9.468C86.6456 9.75733 86.4496 10.2007 86.4496 10.798C86.4496 11.386 86.6456 11.8293 87.0376 12.128C87.4296 12.4267 88.0176 12.576 88.8016 12.576ZM88.8016 7.97C89.4829 7.97 90.0009 7.82067 90.3556 7.522C90.7196 7.214 90.9016 6.78933 90.9016 6.248C90.9016 5.716 90.7196 5.30067 90.3556 5.002C90.0009 4.70333 89.4829 4.554 88.8016 4.554C88.1296 4.554 87.6116 4.70333 87.2476 5.002C86.8836 5.30067 86.7016 5.716 86.7016 6.248C86.7016 6.78933 86.8836 7.214 87.2476 7.522C87.6116 7.82067 88.1296 7.97 88.8016 7.97ZM94.4801 13.5L99.3381 4.218V4.75H93.8781V3.63H100.528V4.596L95.9221 13.5H94.4801ZM109.212 13.626C108.54 13.626 107.896 13.5233 107.28 13.318C106.673 13.1127 106.165 12.8233 105.754 12.45L106.216 11.442C106.673 11.8153 107.145 12.086 107.63 12.254C108.115 12.422 108.629 12.506 109.17 12.506C109.889 12.506 110.435 12.3567 110.808 12.058C111.181 11.75 111.368 11.3113 111.368 10.742C111.368 10.182 111.177 9.75733 110.794 9.468C110.421 9.17867 109.87 9.034 109.142 9.034H107.63V7.956H109.044C109.66 7.956 110.155 7.79733 110.528 7.48C110.901 7.16267 111.088 6.72867 111.088 6.178C111.088 5.674 110.915 5.29133 110.57 5.03C110.234 4.75933 109.753 4.624 109.128 4.624C108.073 4.624 107.159 4.99267 106.384 5.73L105.922 4.736C106.314 4.344 106.799 4.04067 107.378 3.826C107.957 3.61133 108.568 3.504 109.212 3.504C110.192 3.504 110.962 3.728 111.522 4.176C112.082 4.624 112.362 5.24933 112.362 6.052C112.362 6.65867 112.189 7.18133 111.844 7.62C111.508 8.04933 111.046 8.334 110.458 8.474V8.32C111.149 8.44133 111.685 8.726 112.068 9.174C112.451 9.61267 112.642 10.1633 112.642 10.826C112.642 11.694 112.334 12.38 111.718 12.884C111.111 13.3787 110.276 13.626 109.212 13.626ZM117.677 13.626C116.538 13.626 115.656 13.3833 115.031 12.898C114.405 12.4127 114.093 11.736 114.093 10.868C114.093 10.1867 114.303 9.622 114.723 9.174C115.152 8.71667 115.707 8.44133 116.389 8.348V8.572C115.763 8.44133 115.264 8.15667 114.891 7.718C114.527 7.27933 114.345 6.752 114.345 6.136C114.345 5.31467 114.639 4.67067 115.227 4.204C115.824 3.73733 116.641 3.504 117.677 3.504C118.722 3.504 119.539 3.73733 120.127 4.204C120.724 4.67067 121.023 5.31467 121.023 6.136C121.023 6.752 120.845 7.284 120.491 7.732C120.145 8.18 119.665 8.46 119.049 8.572V8.348C119.73 8.44133 120.267 8.71667 120.659 9.174C121.06 9.622 121.261 10.1867 121.261 10.868C121.261 11.736 120.948 12.4127 120.323 12.898C119.707 13.3833 118.825 13.626 117.677 13.626ZM117.677 12.576C118.47 12.576 119.058 12.4267 119.441 12.128C119.833 11.8293 120.029 11.386 120.029 10.798C120.029 10.2007 119.833 9.75733 119.441 9.468C119.058 9.17867 118.47 9.034 117.677 9.034C116.893 9.034 116.305 9.17867 115.913 9.468C115.521 9.75733 115.325 10.2007 115.325 10.798C115.325 11.386 115.521 11.8293 115.913 12.128C116.305 12.4267 116.893 12.576 117.677 12.576ZM117.677 7.97C118.358 7.97 118.876 7.82067 119.231 7.522C119.595 7.214 119.777 6.78933 119.777 6.248C119.777 5.716 119.595 5.30067 119.231 5.002C118.876 4.70333 118.358 4.554 117.677 4.554C117.005 4.554 116.487 4.70333 116.123 5.002C115.759 5.30067 115.577 5.716 115.577 6.248C115.577 6.78933 115.759 7.214 116.123 7.522C116.487 7.82067 117.005 7.97 117.677 7.97ZM123.355 13.5L128.213 4.218V4.75H122.753V3.63H129.403V4.596L124.797 13.5H123.355ZM131.75 13.5L136.608 4.218V4.75H131.148V3.63H137.798V4.596L133.192 13.5H131.75Z" fill="#0D0D0D"/>
</svg>
